<svg width="1104" height="273" viewBox="0 0 1104 273" fill="none" xmlns="http://www.w3.org/2000/svg">
<rect x="0.5" y="0.5" width="1103" height="272" rx="4.5" stroke="#9747FF" stroke-dasharray="10 5"/>
<mask id="mask0_13_57" style="mask-type:alpha" maskUnits="userSpaceOnUse" x="90" y="62" width="299" height="139">
<path d="M118.901 96.072C118.517 96.392 117.797 96.824 116.741 97.368C115.717 97.912 114.453 98.392 112.949 98.808C111.445 99.224 109.781 99.416 107.957 99.384C105.173 99.32 102.677 98.824 100.469 97.896C98.293 96.936 96.437 95.64 94.901 94.008C93.397 92.376 92.245 90.504 91.445 88.392C90.645 86.28 90.245 84.024 90.245 81.624C90.245 78.936 90.645 76.472 91.445 74.232C92.277 71.992 93.445 70.056 94.949 68.424C96.485 66.792 98.309 65.528 100.421 64.632C102.533 63.736 104.869 63.288 107.429 63.288C109.797 63.288 111.893 63.608 113.717 64.248C115.541 64.888 117.029 65.576 118.181 66.312L115.445 72.888C114.645 72.28 113.573 71.656 112.229 71.016C110.917 70.344 109.397 70.008 107.669 70.008C106.325 70.008 105.029 70.296 103.781 70.872C102.565 71.416 101.477 72.2 100.517 73.224C99.589 74.248 98.853 75.448 98.309 76.824C97.765 78.168 97.493 79.64 97.493 81.24C97.493 82.936 97.733 84.488 98.213 85.896C98.725 87.304 99.445 88.52 100.373 89.544C101.301 90.536 102.405 91.304 103.685 91.848C104.997 92.392 106.469 92.664 108.101 92.664C109.989 92.664 111.605 92.36 112.949 91.752C114.293 91.144 115.317 90.504 116.021 89.832L118.901 96.072ZM123.284 81.384C123.284 78.952 123.748 76.648 124.676 74.472C125.604 72.296 126.884 70.376 128.516 68.712C130.18 67.016 132.1 65.688 134.276 64.728C136.452 63.768 138.788 63.288 141.284 63.288C143.748 63.288 146.068 63.768 148.244 64.728C150.42 65.688 152.34 67.016 154.004 68.712C155.7 70.376 157.012 72.296 157.94 74.472C158.9 76.648 159.38 78.952 159.38 81.384C159.38 83.88 158.9 86.216 157.94 88.392C157.012 90.568 155.7 92.488 154.004 94.152C152.34 95.784 150.42 97.064 148.244 97.992C146.068 98.92 143.748 99.384 141.284 99.384C138.788 99.384 136.452 98.92 134.276 97.992C132.1 97.064 130.18 95.784 128.516 94.152C126.884 92.488 125.604 90.568 124.676 88.392C123.748 86.216 123.284 83.88 123.284 81.384ZM130.484 81.384C130.484 82.952 130.756 84.424 131.3 85.8C131.876 87.144 132.66 88.344 133.652 89.4C134.676 90.424 135.844 91.224 137.156 91.8C138.5 92.376 139.956 92.664 141.524 92.664C143.028 92.664 144.42 92.376 145.7 91.8C147.012 91.224 148.148 90.424 149.108 89.4C150.068 88.344 150.82 87.144 151.364 85.8C151.908 84.424 152.18 82.952 152.18 81.384C152.18 79.784 151.892 78.296 151.316 76.92C150.772 75.544 150.004 74.344 149.012 73.32C148.052 72.264 146.916 71.448 145.604 70.872C144.292 70.296 142.868 70.008 141.332 70.008C139.796 70.008 138.372 70.296 137.06 70.872C135.748 71.448 134.596 72.264 133.604 73.32C132.612 74.344 131.844 75.544 131.3 76.92C130.756 78.296 130.484 79.784 130.484 81.384ZM165.889 99V62.232H165.937L185.569 90.072L182.593 89.4L202.177 62.232H202.273V99H195.313V77.928L195.745 81.528L183.793 98.52H183.697L171.409 81.528L172.609 78.216V99H165.889ZM210.974 99V62.232H211.022L230.654 90.072L227.678 89.4L247.262 62.232H247.358V99H240.398V77.928L240.83 81.528L228.878 98.52H228.782L216.494 81.528L217.694 78.216V99H210.974ZM262.3 85.944C262.3 87.064 262.636 88.136 263.308 89.16C263.98 90.184 264.86 91.016 265.948 91.656C267.068 92.296 268.284 92.616 269.596 92.616C271.036 92.616 272.316 92.296 273.436 91.656C274.556 91.016 275.436 90.184 276.076 89.16C276.748 88.136 277.084 87.064 277.084 85.944V63.672H283.948V86.088C283.948 88.68 283.308 90.984 282.028 93C280.748 94.984 279.02 96.552 276.844 97.704C274.668 98.824 272.252 99.384 269.596 99.384C266.972 99.384 264.572 98.824 262.396 97.704C260.252 96.552 258.54 94.984 257.26 93C255.98 90.984 255.34 88.68 255.34 86.088V63.672H262.3V85.944ZM323.543 100.44L296.759 76.248L298.823 77.4L298.967 99H291.911V62.28H292.199L318.407 86.376L316.871 85.704L316.727 63.672H323.735V100.44H323.543ZM328.419 99L344.355 62.28H344.739L360.675 99H352.611L342.435 73.176L347.475 69.72L335.283 99H328.419ZM339.315 86.232H349.923L352.371 92.088H337.155L339.315 86.232ZM365.395 63.672H372.355V92.28H388.963V99H365.395V63.672ZM149.21 122.216C147.866 121.48 146.49 120.872 145.082 120.392C143.706 119.912 142.41 119.672 141.194 119.672C139.69 119.672 138.506 119.976 137.642 120.584C136.778 121.192 136.346 122.104 136.346 123.32C136.346 124.152 136.666 124.904 137.306 125.576C137.978 126.216 138.826 126.792 139.85 127.304C140.906 127.816 141.994 128.28 143.114 128.696C144.138 129.08 145.146 129.544 146.138 130.088C147.162 130.6 148.074 131.256 148.874 132.056C149.674 132.824 150.314 133.8 150.794 134.984C151.274 136.136 151.514 137.56 151.514 139.256C151.514 141.048 151.05 142.712 150.122 144.248C149.194 145.784 147.834 147.032 146.042 147.992C144.25 148.92 142.042 149.384 139.418 149.384C138.074 149.384 136.698 149.256 135.29 149C133.914 148.712 132.554 148.296 131.21 147.752C129.866 147.176 128.57 146.456 127.322 145.592L130.394 140.168C131.226 140.776 132.122 141.32 133.082 141.8C134.074 142.248 135.066 142.6 136.058 142.856C137.05 143.112 137.962 143.24 138.794 143.24C139.626 143.24 140.458 143.128 141.29 142.904C142.154 142.648 142.858 142.232 143.402 141.656C143.978 141.08 144.266 140.28 144.266 139.256C144.266 138.552 144.026 137.912 143.546 137.336C143.098 136.76 142.474 136.232 141.674 135.752C140.906 135.272 140.058 134.856 139.13 134.504C138.042 134.088 136.922 133.608 135.77 133.064C134.618 132.52 133.53 131.864 132.506 131.096C131.514 130.296 130.698 129.32 130.058 128.168C129.45 126.984 129.146 125.544 129.146 123.848C129.146 121.8 129.594 120.024 130.49 118.52C131.418 117.016 132.714 115.832 134.378 114.968C136.042 114.072 137.962 113.576 140.138 113.48C142.986 113.48 145.29 113.816 147.05 114.488C148.842 115.16 150.442 115.96 151.85 116.888L149.21 122.216ZM155.501 113.672H179.309V120.392H170.717V149H163.757V120.392H155.501V113.672ZM191.836 135.944C191.836 137.064 192.172 138.136 192.844 139.16C193.516 140.184 194.396 141.016 195.484 141.656C196.604 142.296 197.82 142.616 199.132 142.616C200.572 142.616 201.852 142.296 202.972 141.656C204.092 141.016 204.972 140.184 205.612 139.16C206.284 138.136 206.62 137.064 206.62 135.944V113.672H213.484V136.088C213.484 138.68 212.844 140.984 211.564 143C210.284 144.984 208.556 146.552 206.38 147.704C204.204 148.824 201.788 149.384 199.132 149.384C196.508 149.384 194.108 148.824 191.932 147.704C189.788 146.552 188.076 144.984 186.796 143C185.516 140.984 184.876 138.68 184.876 136.088V113.672H191.836V135.944ZM221.447 149V113.672H232.007C235.559 113.672 238.583 114.2 241.079 115.256C243.575 116.312 245.575 117.72 247.079 119.48C248.615 121.24 249.735 123.208 250.439 125.384C251.143 127.56 251.495 129.752 251.495 131.96C251.495 134.584 251.015 136.952 250.055 139.064C249.127 141.144 247.847 142.936 246.215 144.44C244.583 145.912 242.695 147.048 240.551 147.848C238.407 148.616 236.135 149 233.735 149H221.447ZM228.407 142.28H232.535C234.295 142.28 235.895 142.056 237.335 141.608C238.775 141.128 240.007 140.44 241.031 139.544C242.087 138.648 242.887 137.528 243.431 136.184C244.007 134.808 244.295 133.24 244.295 131.48C244.295 129.176 243.911 127.304 243.143 125.864C242.407 124.392 241.479 123.256 240.359 122.456C239.271 121.656 238.151 121.112 236.999 120.824C235.847 120.504 234.871 120.344 234.071 120.344H228.407V142.28ZM258.048 113.672H282.144V120.392H265.008V127.928H280.176V134.648H265.008V142.28H282.816V149H258.048V113.672ZM321.219 150.44L294.435 126.248L296.499 127.4L296.643 149H289.587V112.28H289.875L316.083 136.376L314.547 135.704L314.403 113.672H321.411V150.44H321.219ZM327.679 113.672H351.487V120.392H342.895V149H335.935V120.392H327.679V113.672ZM151.448 196.072C151.064 196.392 150.344 196.824 149.288 197.368C148.264 197.912 147 198.392 145.496 198.808C143.992 199.224 142.328 199.416 140.504 199.384C137.72 199.32 135.224 198.824 133.016 197.896C130.84 196.936 128.984 195.64 127.448 194.008C125.944 192.376 124.792 190.504 123.992 188.392C123.192 186.28 122.792 184.024 122.792 181.624C122.792 178.936 123.192 176.472 123.992 174.232C124.824 171.992 125.992 170.056 127.496 168.424C129.032 166.792 130.856 165.528 132.968 164.632C135.08 163.736 137.416 163.288 139.976 163.288C142.344 163.288 144.44 163.608 146.264 164.248C148.088 164.888 149.576 165.576 150.728 166.312L147.992 172.888C147.192 172.28 146.12 171.656 144.776 171.016C143.464 170.344 141.944 170.008 140.216 170.008C138.872 170.008 137.576 170.296 136.328 170.872C135.112 171.416 134.024 172.2 133.064 173.224C132.136 174.248 131.4 175.448 130.856 176.824C130.312 178.168 130.04 179.64 130.04 181.24C130.04 182.936 130.28 184.488 130.76 185.896C131.272 187.304 131.992 188.52 132.92 189.544C133.848 190.536 134.952 191.304 136.232 191.848C137.544 192.392 139.016 192.664 140.648 192.664C142.536 192.664 144.152 192.36 145.496 191.752C146.84 191.144 147.864 190.504 148.568 189.832L151.448 196.072ZM154.006 199L169.942 162.28H170.326L186.262 199H178.198L168.022 173.176L173.062 169.72L160.87 199H154.006ZM164.902 186.232H175.51L177.958 192.088H162.742L164.902 186.232ZM222.614 200.44L195.83 176.248L197.894 177.4L198.038 199H190.982V162.28H191.27L217.478 186.376L215.942 185.704L215.798 163.672H222.806V200.44H222.614ZM229.074 163.672H252.882V170.392H244.29V199H237.33V170.392H229.074V163.672ZM259.169 163.672H283.265V170.392H266.129V177.928H281.297V184.648H266.129V192.28H283.937V199H259.169V163.672ZM290.708 163.672H314.804V170.392H297.668V177.928H312.836V184.648H297.668V192.28H315.476V199H290.708V163.672ZM353.879 200.44L327.095 176.248L329.159 177.4L329.303 199H322.247V162.28H322.535L348.743 186.376L347.207 185.704L347.063 163.672H354.071V200.44H353.879Z" fill="white"/>
</mask>
<g mask="url(#mask0_13_57)">
<g filter="url(#filter0_f_13_57)">
<path d="M427.5 199L441.757 234.24L487.892 234.24L450.568 256.02L464.824 291.26L427.5 269.48L390.176 291.26L404.432 256.02L367.108 234.24L413.243 234.24L427.5 199Z" fill="#89B391"/>
</g>
<g filter="url(#filter1_f_13_57)">
<path d="M-9.00516 132L119.495 292.5L-106 276L-9.00516 132Z" fill="#689368"/>
</g>
<g filter="url(#filter2_f_13_57)">
<ellipse cx="7" cy="0.5" rx="92" ry="80.5" fill="#B7C5B7"/>
</g>
</g>
<mask id="mask1_13_57" style="mask-type:alpha" maskUnits="userSpaceOnUse" x="678" y="56" width="375" height="148">
<path d="M714.321 98.34C713.841 98.74 712.941 99.28 711.621 99.96C710.341 100.64 708.761 101.24 706.881 101.76C705.001 102.28 702.921 102.52 700.641 102.48C697.161 102.4 694.041 101.78 691.281 100.62C688.561 99.42 686.241 97.8 684.321 95.76C682.441 93.72 681.001 91.38 680.001 88.74C679.001 86.1 678.501 83.28 678.501 80.28C678.501 76.92 679.001 73.84 680.001 71.04C681.041 68.24 682.501 65.82 684.381 63.78C686.301 61.74 688.581 60.16 691.221 59.04C693.861 57.92 696.781 57.36 699.981 57.36C702.941 57.36 705.561 57.76 707.841 58.56C710.121 59.36 711.981 60.22 713.421 61.14L710.001 69.36C709.001 68.6 707.661 67.82 705.981 67.02C704.341 66.18 702.441 65.76 700.281 65.76C698.601 65.76 696.981 66.12 695.421 66.84C693.901 67.52 692.541 68.5 691.341 69.78C690.181 71.06 689.261 72.56 688.581 74.28C687.901 75.96 687.561 77.8 687.561 79.8C687.561 81.92 687.861 83.86 688.461 85.62C689.101 87.38 690.001 88.9 691.161 90.18C692.321 91.42 693.701 92.38 695.301 93.06C696.941 93.74 698.781 94.08 700.821 94.08C703.181 94.08 705.201 93.7 706.881 92.94C708.561 92.18 709.841 91.38 710.721 90.54L714.321 98.34ZM719.907 79.98C719.907 76.94 720.487 74.06 721.647 71.34C722.807 68.62 724.407 66.22 726.447 64.14C728.527 62.02 730.927 60.36 733.647 59.16C736.367 57.96 739.287 57.36 742.407 57.36C745.487 57.36 748.387 57.96 751.107 59.16C753.827 60.36 756.227 62.02 758.307 64.14C760.427 66.22 762.067 68.62 763.227 71.34C764.427 74.06 765.027 76.94 765.027 79.98C765.027 83.1 764.427 86.02 763.227 88.74C762.067 91.46 760.427 93.86 758.307 95.94C756.227 97.98 753.827 99.58 751.107 100.74C748.387 101.9 745.487 102.48 742.407 102.48C739.287 102.48 736.367 101.9 733.647 100.74C730.927 99.58 728.527 97.98 726.447 95.94C724.407 93.86 722.807 91.46 721.647 88.74C720.487 86.02 719.907 83.1 719.907 79.98ZM728.907 79.98C728.907 81.94 729.247 83.78 729.927 85.5C730.647 87.18 731.627 88.68 732.867 90C734.147 91.28 735.607 92.28 737.247 93C738.927 93.72 740.747 94.08 742.707 94.08C744.587 94.08 746.327 93.72 747.927 93C749.567 92.28 750.987 91.28 752.187 90C753.387 88.68 754.327 87.18 755.007 85.5C755.687 83.78 756.027 81.94 756.027 79.98C756.027 77.98 755.667 76.12 754.947 74.4C754.267 72.68 753.307 71.18 752.067 69.9C750.867 68.58 749.447 67.56 747.807 66.84C746.167 66.12 744.387 65.76 742.467 65.76C740.547 65.76 738.767 66.12 737.127 66.84C735.487 67.56 734.047 68.58 732.807 69.9C731.567 71.18 730.607 72.68 729.927 74.4C729.247 76.12 728.907 77.98 728.907 79.98ZM773.271 102V56.04H773.331L797.871 90.84L794.151 90L818.631 56.04H818.751V102H810.051V75.66L810.591 80.16L795.651 101.4H795.531L780.171 80.16L781.671 76.02V102H773.271ZM829.735 102V56.04H829.795L854.335 90.84L850.615 90L875.095 56.04H875.215V102H866.515V75.66L867.055 80.16L852.115 101.4H851.995L836.635 80.16L838.135 76.02V102H829.735ZM894 85.68C894 87.08 894.42 88.42 895.26 89.7C896.1 90.98 897.2 92.02 898.56 92.82C899.96 93.62 901.48 94.02 903.12 94.02C904.92 94.02 906.52 93.62 907.92 92.82C909.32 92.02 910.42 90.98 911.22 89.7C912.06 88.42 912.48 87.08 912.48 85.68V57.84H921.06V85.86C921.06 89.1 920.26 91.98 918.66 94.5C917.06 96.98 914.9 98.94 912.18 100.38C909.46 101.78 906.44 102.48 903.12 102.48C899.84 102.48 896.84 101.78 894.12 100.38C891.44 98.94 889.3 96.98 887.7 94.5C886.1 91.98 885.3 89.1 885.3 85.86V57.84H894V85.68ZM970.662 103.8L937.182 73.56L939.762 75L939.942 102H931.122V56.1H931.482L964.242 86.22L962.322 85.38L962.142 57.84H970.902V103.8H970.662ZM976.864 102L996.784 56.1H997.264L1017.18 102H1007.1L994.384 69.72L1000.68 65.4L985.444 102H976.864ZM990.484 86.04H1003.74L1006.8 93.36H987.784L990.484 86.04ZM1023.19 57.84H1031.89V93.6H1052.65V102H1023.19V57.84ZM752.262 118.52C750.582 117.6 748.862 116.84 747.102 116.24C745.382 115.64 743.762 115.34 742.242 115.34C740.362 115.34 738.882 115.72 737.802 116.48C736.722 117.24 736.182 118.38 736.182 119.9C736.182 120.94 736.582 121.88 737.382 122.72C738.222 123.52 739.282 124.24 740.562 124.88C741.882 125.52 743.242 126.1 744.642 126.62C745.922 127.1 747.182 127.68 748.422 128.36C749.702 129 750.842 129.82 751.842 130.82C752.842 131.78 753.642 133 754.242 134.48C754.842 135.92 755.142 137.7 755.142 139.82C755.142 142.06 754.562 144.14 753.402 146.06C752.242 147.98 750.542 149.54 748.302 150.74C746.062 151.9 743.302 152.48 740.022 152.48C738.342 152.48 736.622 152.32 734.862 152C733.142 151.64 731.442 151.12 729.762 150.44C728.082 149.72 726.462 148.82 724.902 147.74L728.742 140.96C729.782 141.72 730.902 142.4 732.102 143C733.342 143.56 734.582 144 735.822 144.32C737.062 144.64 738.202 144.8 739.242 144.8C740.282 144.8 741.322 144.66 742.362 144.38C743.442 144.06 744.322 143.54 745.002 142.82C745.722 142.1 746.082 141.1 746.082 139.82C746.082 138.94 745.782 138.14 745.182 137.42C744.622 136.7 743.842 136.04 742.842 135.44C741.882 134.84 740.822 134.32 739.662 133.88C738.302 133.36 736.902 132.76 735.462 132.08C734.022 131.4 732.662 130.58 731.382 129.62C730.142 128.62 729.122 127.4 728.322 125.96C727.562 124.48 727.182 122.68 727.182 120.56C727.182 118 727.742 115.78 728.862 113.9C730.022 112.02 731.642 110.54 733.722 109.46C735.802 108.34 738.202 107.72 740.922 107.6C744.482 107.6 747.362 108.02 749.562 108.86C751.802 109.7 753.802 110.7 755.562 111.86L752.262 118.52ZM760.232 107.84H789.992V116.24H779.252V152H770.552V116.24H760.232V107.84ZM805.758 135.68C805.758 137.08 806.178 138.42 807.018 139.7C807.858 140.98 808.958 142.02 810.318 142.82C811.718 143.62 813.238 144.02 814.878 144.02C816.678 144.02 818.278 143.62 819.678 142.82C821.078 142.02 822.178 140.98 822.978 139.7C823.818 138.42 824.238 137.08 824.238 135.68V107.84H832.818V135.86C832.818 139.1 832.018 141.98 830.418 144.5C828.818 146.98 826.658 148.94 823.938 150.38C821.218 151.78 818.198 152.48 814.878 152.48C811.598 152.48 808.598 151.78 805.878 150.38C803.198 148.94 801.058 146.98 799.458 144.5C797.858 141.98 797.058 139.1 797.058 135.86V107.84H805.758V135.68ZM842.88 152V107.84H856.08C860.52 107.84 864.3 108.5 867.42 109.82C870.54 111.14 873.04 112.9 874.92 115.1C876.84 117.3 878.24 119.76 879.12 122.48C880 125.2 880.44 127.94 880.44 130.7C880.44 133.98 879.84 136.94 878.64 139.58C877.48 142.18 875.88 144.42 873.84 146.3C871.8 148.14 869.44 149.56 866.76 150.56C864.08 151.52 861.24 152 858.24 152H842.88ZM851.58 143.6H856.74C858.94 143.6 860.94 143.32 862.74 142.76C864.54 142.16 866.08 141.3 867.36 140.18C868.68 139.06 869.68 137.66 870.36 135.98C871.08 134.26 871.44 132.3 871.44 130.1C871.44 127.22 870.96 124.88 870 123.08C869.08 121.24 867.92 119.82 866.52 118.82C865.16 117.82 863.76 117.14 862.32 116.78C860.88 116.38 859.66 116.18 858.66 116.18H851.58V143.6ZM888.739 107.84H918.859V116.24H897.439V125.66H916.399V134.06H897.439V143.6H919.699V152H888.739V107.84ZM967.81 153.8L934.33 123.56L936.91 125L937.09 152H928.27V106.1H928.63L961.39 136.22L959.47 135.38L959.29 107.84H968.05V153.8H967.81ZM975.992 107.84H1005.75V116.24H995.012V152H986.312V116.24H975.992V107.84ZM755.112 198.34C754.632 198.74 753.732 199.28 752.412 199.96C751.132 200.64 749.552 201.24 747.672 201.76C745.792 202.28 743.712 202.52 741.432 202.48C737.952 202.4 734.832 201.78 732.072 200.62C729.352 199.42 727.032 197.8 725.112 195.76C723.232 193.72 721.792 191.38 720.792 188.74C719.792 186.1 719.292 183.28 719.292 180.28C719.292 176.92 719.792 173.84 720.792 171.04C721.832 168.24 723.292 165.82 725.172 163.78C727.092 161.74 729.372 160.16 732.012 159.04C734.652 157.92 737.572 157.36 740.772 157.36C743.732 157.36 746.352 157.76 748.632 158.56C750.912 159.36 752.772 160.22 754.212 161.14L750.792 169.36C749.792 168.6 748.452 167.82 746.772 167.02C745.132 166.18 743.232 165.76 741.072 165.76C739.392 165.76 737.772 166.12 736.212 166.84C734.692 167.52 733.332 168.5 732.132 169.78C730.972 171.06 730.052 172.56 729.372 174.28C728.692 175.96 728.352 177.8 728.352 179.8C728.352 181.92 728.652 183.86 729.252 185.62C729.892 187.38 730.792 188.9 731.952 190.18C733.112 191.42 734.492 192.38 736.092 193.06C737.732 193.74 739.572 194.08 741.612 194.08C743.972 194.08 745.992 193.7 747.672 192.94C749.352 192.18 750.632 191.38 751.512 190.54L755.112 198.34ZM758.418 202L778.338 156.1H778.818L798.738 202H788.658L775.938 169.72L782.238 165.4L766.998 202H758.418ZM772.038 186.04H785.298L788.358 193.36H769.338L772.038 186.04ZM844.285 203.8L810.805 173.56L813.385 175L813.565 202H804.745V156.1H805.105L837.865 186.22L835.945 185.38L835.765 157.84H844.525V203.8H844.285ZM852.468 157.84H882.228V166.24H871.488V202H862.788V166.24H852.468V157.84ZM890.194 157.84H920.314V166.24H898.894V175.66H917.854V184.06H898.894V193.6H921.154V202H890.194V157.84ZM929.725 157.84H959.845V166.24H938.425V175.66H957.385V184.06H938.425V193.6H960.685V202H929.725V157.84ZM1008.8 203.8L975.316 173.56L977.896 175L978.076 202H969.256V156.1H969.616L1002.38 186.22L1000.46 185.38L1000.28 157.84H1009.04V203.8H1008.8Z" fill="white"/>
</mask>
<g mask="url(#mask1_13_57)">
<g filter="url(#filter3_f_13_57)">
<path d="M659.366 -28L844 240L520 212.449L659.366 -28Z" fill="#7190FF"/>
</g>
<g filter="url(#filter4_f_13_57)">
<ellipse cx="844.5" cy="79" rx="120.5" ry="98" fill="#B7C5B7"/>
</g>
<g filter="url(#filter5_f_13_57)">
<path d="M878 102L909.601 162.218L995 184.5L909.601 206.782L878 267L846.399 206.782L761 184.5L846.399 162.218L878 102Z" fill="#FF988E"/>
</g>
<g filter="url(#filter6_f_13_57)">
<rect x="913" y="32" width="153" height="221" fill="#FFE072"/>
</g>
</g>
<defs>
<filter id="filter0_f_13_57" x="357.108" y="189" width="140.784" height="112.26" filterUnits="userSpaceOnUse" color-interpolation-filters="sRGB">
<feFlood flood-opacity="0" result="BackgroundImageFix"/>
<feBlend mode="normal" in="SourceGraphic" in2="BackgroundImageFix" result="shape"/>
<feGaussianBlur stdDeviation="5" result="effect1_foregroundBlur_13_57"/>
</filter>
<filter id="filter1_f_13_57" x="-116" y="122" width="245.495" height="180.5" filterUnits="userSpaceOnUse" color-interpolation-filters="sRGB">
<feFlood flood-opacity="0" result="BackgroundImageFix"/>
<feBlend mode="normal" in="SourceGraphic" in2="BackgroundImageFix" result="shape"/>
<feGaussianBlur stdDeviation="5" result="effect1_foregroundBlur_13_57"/>
</filter>
<filter id="filter2_f_13_57" x="-95" y="-90" width="204" height="181" filterUnits="userSpaceOnUse" color-interpolation-filters="sRGB">
<feFlood flood-opacity="0" result="BackgroundImageFix"/>
<feBlend mode="normal" in="SourceGraphic" in2="BackgroundImageFix" result="shape"/>
<feGaussianBlur stdDeviation="5" result="effect1_foregroundBlur_13_57"/>
</filter>
<filter id="filter3_f_13_57" x="510" y="-38" width="344" height="288" filterUnits="userSpaceOnUse" color-interpolation-filters="sRGB">
<feFlood flood-opacity="0" result="BackgroundImageFix"/>
<feBlend mode="normal" in="SourceGraphic" in2="BackgroundImageFix" result="shape"/>
<feGaussianBlur stdDeviation="5" result="effect1_foregroundBlur_13_57"/>
</filter>
<filter id="filter4_f_13_57" x="714" y="-29" width="261" height="216" filterUnits="userSpaceOnUse" color-interpolation-filters="sRGB">
<feFlood flood-opacity="0" result="BackgroundImageFix"/>
<feBlend mode="normal" in="SourceGraphic" in2="BackgroundImageFix" result="shape"/>
<feGaussianBlur stdDeviation="5" result="effect1_foregroundBlur_13_57"/>
</filter>
<filter id="filter5_f_13_57" x="751" y="92" width="254" height="185" filterUnits="userSpaceOnUse" color-interpolation-filters="sRGB">
<feFlood flood-opacity="0" result="BackgroundImageFix"/>
<feBlend mode="normal" in="SourceGraphic" in2="BackgroundImageFix" result="shape"/>
<feGaussianBlur stdDeviation="5" result="effect1_foregroundBlur_13_57"/>
</filter>
<filter id="filter6_f_13_57" x="903" y="22" width="173" height="241" filterUnits="userSpaceOnUse" color-interpolation-filters="sRGB">
<feFlood flood-opacity="0" result="BackgroundImageFix"/>
<feBlend mode="normal" in="SourceGraphic" in2="BackgroundImageFix" result="shape"/>
<feGaussianBlur stdDeviation="5" result="effect1_foregroundBlur_13_57"/>
</filter>
</defs>
</svg>
