<svg width="433" height="72" viewBox="0 0 433 72" fill="none" xmlns="http://www.w3.org/2000/svg">
<rect x="0.5" y="0.5" width="432" height="71" rx="4.5" stroke="#9747FF" stroke-dasharray="10 5"/>
<path d="M35.1172 34.9297V36.0078C35.1172 37.2891 34.957 38.4375 34.6367 39.4531C34.3164 40.4688 33.8555 41.332 33.2539 42.043C32.6523 42.7539 31.9297 43.2969 31.0859 43.6719C30.25 44.0469 29.3125 44.2344 28.2734 44.2344C27.2656 44.2344 26.3398 44.0469 25.4961 43.6719C24.6602 43.2969 23.9336 42.7539 23.3164 42.043C22.707 41.332 22.2344 40.4688 21.8984 39.4531C21.5625 38.4375 21.3945 37.2891 21.3945 36.0078V34.9297C21.3945 33.6484 21.5586 32.5039 21.8867 31.4961C22.2227 30.4805 22.6953 29.6172 23.3047 28.9062C23.9141 28.1875 24.6367 27.6406 25.4727 27.2656C26.3164 26.8906 27.2422 26.7031 28.25 26.7031C29.2891 26.7031 30.2266 26.8906 31.0625 27.2656C31.9062 27.6406 32.6289 28.1875 33.2305 28.9062C33.8398 29.6172 34.3047 30.4805 34.625 31.4961C34.9531 32.5039 35.1172 33.6484 35.1172 34.9297ZM32.8789 36.0078V34.9062C32.8789 33.8906 32.7734 32.9922 32.5625 32.2109C32.3594 31.4297 32.0586 30.7734 31.6602 30.2422C31.2617 29.7109 30.7734 29.3086 30.1953 29.0352C29.625 28.7617 28.9766 28.625 28.25 28.625C27.5469 28.625 26.9102 28.7617 26.3398 29.0352C25.7773 29.3086 25.293 29.7109 24.8867 30.2422C24.4883 30.7734 24.1797 31.4297 23.9609 32.2109C23.7422 32.9922 23.6328 33.8906 23.6328 34.9062V36.0078C23.6328 37.0312 23.7422 37.9375 23.9609 38.7266C24.1797 39.5078 24.4922 40.168 24.8984 40.707C25.3125 41.2383 25.8008 41.6406 26.3633 41.9141C26.9336 42.1875 27.5703 42.3242 28.2734 42.3242C29.0078 42.3242 29.6602 42.1875 30.2305 41.9141C30.8008 41.6406 31.2812 41.2383 31.6719 40.707C32.0703 40.168 32.3711 39.5078 32.5742 38.7266C32.7773 37.9375 32.8789 37.0312 32.8789 36.0078ZM40.3438 33.3125V44H38.1758V31.3203H40.2852L40.3438 33.3125ZM44.3047 31.25L44.293 33.2656C44.1133 33.2266 43.9414 33.2031 43.7773 33.1953C43.6211 33.1797 43.4414 33.1719 43.2383 33.1719C42.7383 33.1719 42.2969 33.25 41.9141 33.4062C41.5312 33.5625 41.207 33.7812 40.9414 34.0625C40.6758 34.3438 40.4648 34.6797 40.3086 35.0703C40.1602 35.4531 40.0625 35.875 40.0156 36.3359L39.4062 36.6875C39.4062 35.9219 39.4805 35.2031 39.6289 34.5312C39.7852 33.8594 40.0234 33.2656 40.3438 32.75C40.6641 32.2266 41.0703 31.8203 41.5625 31.5312C42.0625 31.2344 42.6562 31.0859 43.3438 31.0859C43.5 31.0859 43.6797 31.1055 43.8828 31.1445C44.0859 31.1758 44.2266 31.2109 44.3047 31.25ZM54.0664 41.5391V26H56.2461V44H54.2539L54.0664 41.5391ZM45.5352 37.8008V37.5547C45.5352 36.5859 45.6523 35.707 45.8867 34.918C46.1289 34.1211 46.4688 33.4375 46.9062 32.8672C47.3516 32.2969 47.8789 31.8594 48.4883 31.5547C49.1055 31.2422 49.793 31.0859 50.5508 31.0859C51.3477 31.0859 52.043 31.2266 52.6367 31.5078C53.2383 31.7812 53.7461 32.1836 54.1602 32.7148C54.582 33.2383 54.9141 33.8711 55.1562 34.6133C55.3984 35.3555 55.5664 36.1953 55.6602 37.1328V38.2109C55.5742 39.1406 55.4062 39.9766 55.1562 40.7188C54.9141 41.4609 54.582 42.0938 54.1602 42.6172C53.7461 43.1406 53.2383 43.543 52.6367 43.8242C52.0352 44.0977 51.332 44.2344 50.5273 44.2344C49.7852 44.2344 49.1055 44.0742 48.4883 43.7539C47.8789 43.4336 47.3516 42.9844 46.9062 42.4062C46.4688 41.8281 46.1289 41.1484 45.8867 40.3672C45.6523 39.5781 45.5352 38.7227 45.5352 37.8008ZM47.7148 37.5547V37.8008C47.7148 38.4336 47.7773 39.0273 47.9023 39.582C48.0352 40.1367 48.2383 40.625 48.5117 41.0469C48.7852 41.4688 49.1328 41.8008 49.5547 42.043C49.9766 42.2773 50.4805 42.3945 51.0664 42.3945C51.7852 42.3945 52.375 42.2422 52.8359 41.9375C53.3047 41.6328 53.6797 41.2305 53.9609 40.7305C54.2422 40.2305 54.4609 39.6875 54.6172 39.1016V36.2773C54.5234 35.8477 54.3867 35.4336 54.207 35.0352C54.0352 34.6289 53.8086 34.2695 53.5273 33.957C53.2539 33.6367 52.9141 33.3828 52.5078 33.1953C52.1094 33.0078 51.6367 32.9141 51.0898 32.9141C50.4961 32.9141 49.9844 33.0391 49.5547 33.2891C49.1328 33.5312 48.7852 33.8672 48.5117 34.2969C48.2383 34.7188 48.0352 35.2109 47.9023 35.7734C47.7773 36.3281 47.7148 36.9219 47.7148 37.5547ZM64.8828 44.2344C64 44.2344 63.1992 44.0859 62.4805 43.7891C61.7695 43.4844 61.1562 43.0586 60.6406 42.5117C60.1328 41.9648 59.7422 41.3164 59.4688 40.5664C59.1953 39.8164 59.0586 38.9961 59.0586 38.1055V37.6133C59.0586 36.582 59.2109 35.6641 59.5156 34.8594C59.8203 34.0469 60.2344 33.3594 60.7578 32.7969C61.2812 32.2344 61.875 31.8086 62.5391 31.5195C63.2031 31.2305 63.8906 31.0859 64.6016 31.0859C65.5078 31.0859 66.2891 31.2422 66.9453 31.5547C67.6094 31.8672 68.1523 32.3047 68.5742 32.8672C68.9961 33.4219 69.3086 34.0781 69.5117 34.8359C69.7148 35.5859 69.8164 36.4062 69.8164 37.2969V38.2695H60.3477V36.5H67.6484V36.3359C67.6172 35.7734 67.5 35.2266 67.2969 34.6953C67.1016 34.1641 66.7891 33.7266 66.3594 33.3828C65.9297 33.0391 65.3438 32.8672 64.6016 32.8672C64.1094 32.8672 63.6562 32.9727 63.2422 33.1836C62.8281 33.3867 62.4727 33.6914 62.1758 34.0977C61.8789 34.5039 61.6484 35 61.4844 35.5859C61.3203 36.1719 61.2383 36.8477 61.2383 37.6133V38.1055C61.2383 38.707 61.3203 39.2734 61.4844 39.8047C61.6562 40.3281 61.9023 40.7891 62.2227 41.1875C62.5508 41.5859 62.9453 41.8984 63.4062 42.125C63.875 42.3516 64.4062 42.4648 65 42.4648C65.7656 42.4648 66.4141 42.3086 66.9453 41.9961C67.4766 41.6836 67.9414 41.2656 68.3398 40.7422L69.6523 41.7852C69.3789 42.1992 69.0312 42.5938 68.6094 42.9688C68.1875 43.3438 67.668 43.6484 67.0508 43.8828C66.4414 44.1172 65.7188 44.2344 64.8828 44.2344ZM74.5156 33.3125V44H72.3477V31.3203H74.457L74.5156 33.3125ZM78.4766 31.25L78.4648 33.2656C78.2852 33.2266 78.1133 33.2031 77.9492 33.1953C77.793 33.1797 77.6133 33.1719 77.4102 33.1719C76.9102 33.1719 76.4688 33.25 76.0859 33.4062C75.7031 33.5625 75.3789 33.7812 75.1133 34.0625C74.8477 34.3438 74.6367 34.6797 74.4805 35.0703C74.332 35.4531 74.2344 35.875 74.1875 36.3359L73.5781 36.6875C73.5781 35.9219 73.6523 35.2031 73.8008 34.5312C73.957 33.8594 74.1953 33.2656 74.5156 32.75C74.8359 32.2266 75.2422 31.8203 75.7344 31.5312C76.2344 31.2344 76.8281 31.0859 77.5156 31.0859C77.6719 31.0859 77.8516 31.1055 78.0547 31.1445C78.2578 31.1758 78.3984 31.2109 78.4766 31.25ZM88.0273 26.9375L80.9141 45.4648H79.0508L86.1758 26.9375H88.0273ZM97.0156 37.3086H92.457V35.4688H97.0156C97.8984 35.4688 98.6133 35.3281 99.1602 35.0469C99.707 34.7656 100.105 34.375 100.355 33.875C100.613 33.375 100.742 32.8047 100.742 32.1641C100.742 31.5781 100.613 31.0273 100.355 30.5117C100.105 29.9961 99.707 29.582 99.1602 29.2695C98.6133 28.9492 97.8984 28.7891 97.0156 28.7891H92.9844V44H90.7227V26.9375H97.0156C98.3047 26.9375 99.3945 27.1602 100.285 27.6055C101.176 28.0508 101.852 28.668 102.312 29.457C102.773 30.2383 103.004 31.1328 103.004 32.1406C103.004 33.2344 102.773 34.168 102.312 34.9414C101.852 35.7148 101.176 36.3047 100.285 36.7109C99.3945 37.1094 98.3047 37.3086 97.0156 37.3086ZM107.703 33.3125V44H105.535V31.3203H107.645L107.703 33.3125ZM111.664 31.25L111.652 33.2656C111.473 33.2266 111.301 33.2031 111.137 33.1953C110.98 33.1797 110.801 33.1719 110.598 33.1719C110.098 33.1719 109.656 33.25 109.273 33.4062C108.891 33.5625 108.566 33.7812 108.301 34.0625C108.035 34.3438 107.824 34.6797 107.668 35.0703C107.52 35.4531 107.422 35.875 107.375 36.3359L106.766 36.6875C106.766 35.9219 106.84 35.2031 106.988 34.5312C107.145 33.8594 107.383 33.2656 107.703 32.75C108.023 32.2266 108.43 31.8203 108.922 31.5312C109.422 31.2344 110.016 31.0859 110.703 31.0859C110.859 31.0859 111.039 31.1055 111.242 31.1445C111.445 31.1758 111.586 31.2109 111.664 31.25ZM118.695 44.2344C117.812 44.2344 117.012 44.0859 116.293 43.7891C115.582 43.4844 114.969 43.0586 114.453 42.5117C113.945 41.9648 113.555 41.3164 113.281 40.5664C113.008 39.8164 112.871 38.9961 112.871 38.1055V37.6133C112.871 36.582 113.023 35.6641 113.328 34.8594C113.633 34.0469 114.047 33.3594 114.57 32.7969C115.094 32.2344 115.688 31.8086 116.352 31.5195C117.016 31.2305 117.703 31.0859 118.414 31.0859C119.32 31.0859 120.102 31.2422 120.758 31.5547C121.422 31.8672 121.965 32.3047 122.387 32.8672C122.809 33.4219 123.121 34.0781 123.324 34.8359C123.527 35.5859 123.629 36.4062 123.629 37.2969V38.2695H114.16V36.5H121.461V36.3359C121.43 35.7734 121.312 35.2266 121.109 34.6953C120.914 34.1641 120.602 33.7266 120.172 33.3828C119.742 33.0391 119.156 32.8672 118.414 32.8672C117.922 32.8672 117.469 32.9727 117.055 33.1836C116.641 33.3867 116.285 33.6914 115.988 34.0977C115.691 34.5039 115.461 35 115.297 35.5859C115.133 36.1719 115.051 36.8477 115.051 37.6133V38.1055C115.051 38.707 115.133 39.2734 115.297 39.8047C115.469 40.3281 115.715 40.7891 116.035 41.1875C116.363 41.5859 116.758 41.8984 117.219 42.125C117.688 42.3516 118.219 42.4648 118.812 42.4648C119.578 42.4648 120.227 42.3086 120.758 41.9961C121.289 41.6836 121.754 41.2656 122.152 40.7422L123.465 41.7852C123.191 42.1992 122.844 42.5938 122.422 42.9688C122 43.3438 121.48 43.6484 120.863 43.8828C120.254 44.1172 119.531 44.2344 118.695 44.2344ZM130.672 35.8555V37.6367H124.953V35.8555H130.672ZM146.258 34.9297V36.0078C146.258 37.2891 146.098 38.4375 145.777 39.4531C145.457 40.4688 144.996 41.332 144.395 42.043C143.793 42.7539 143.07 43.2969 142.227 43.6719C141.391 44.0469 140.453 44.2344 139.414 44.2344C138.406 44.2344 137.48 44.0469 136.637 43.6719C135.801 43.2969 135.074 42.7539 134.457 42.043C133.848 41.332 133.375 40.4688 133.039 39.4531C132.703 38.4375 132.535 37.2891 132.535 36.0078V34.9297C132.535 33.6484 132.699 32.5039 133.027 31.4961C133.363 30.4805 133.836 29.6172 134.445 28.9062C135.055 28.1875 135.777 27.6406 136.613 27.2656C137.457 26.8906 138.383 26.7031 139.391 26.7031C140.43 26.7031 141.367 26.8906 142.203 27.2656C143.047 27.6406 143.77 28.1875 144.371 28.9062C144.98 29.6172 145.445 30.4805 145.766 31.4961C146.094 32.5039 146.258 33.6484 146.258 34.9297ZM144.02 36.0078V34.9062C144.02 33.8906 143.914 32.9922 143.703 32.2109C143.5 31.4297 143.199 30.7734 142.801 30.2422C142.402 29.7109 141.914 29.3086 141.336 29.0352C140.766 28.7617 140.117 28.625 139.391 28.625C138.688 28.625 138.051 28.7617 137.48 29.0352C136.918 29.3086 136.434 29.7109 136.027 30.2422C135.629 30.7734 135.32 31.4297 135.102 32.2109C134.883 32.9922 134.773 33.8906 134.773 34.9062V36.0078C134.773 37.0312 134.883 37.9375 135.102 38.7266C135.32 39.5078 135.633 40.168 136.039 40.707C136.453 41.2383 136.941 41.6406 137.504 41.9141C138.074 42.1875 138.711 42.3242 139.414 42.3242C140.148 42.3242 140.801 42.1875 141.371 41.9141C141.941 41.6406 142.422 41.2383 142.812 40.707C143.211 40.168 143.512 39.5078 143.715 38.7266C143.918 37.9375 144.02 37.0312 144.02 36.0078ZM151.484 33.3125V44H149.316V31.3203H151.426L151.484 33.3125ZM155.445 31.25L155.434 33.2656C155.254 33.2266 155.082 33.2031 154.918 33.1953C154.762 33.1797 154.582 33.1719 154.379 33.1719C153.879 33.1719 153.438 33.25 153.055 33.4062C152.672 33.5625 152.348 33.7812 152.082 34.0625C151.816 34.3438 151.605 34.6797 151.449 35.0703C151.301 35.4531 151.203 35.875 151.156 36.3359L150.547 36.6875C150.547 35.9219 150.621 35.2031 150.77 34.5312C150.926 33.8594 151.164 33.2656 151.484 32.75C151.805 32.2266 152.211 31.8203 152.703 31.5312C153.203 31.2344 153.797 31.0859 154.484 31.0859C154.641 31.0859 154.82 31.1055 155.023 31.1445C155.227 31.1758 155.367 31.2109 155.445 31.25ZM165.207 41.5391V26H167.387V44H165.395L165.207 41.5391ZM156.676 37.8008V37.5547C156.676 36.5859 156.793 35.707 157.027 34.918C157.27 34.1211 157.609 33.4375 158.047 32.8672C158.492 32.2969 159.02 31.8594 159.629 31.5547C160.246 31.2422 160.934 31.0859 161.691 31.0859C162.488 31.0859 163.184 31.2266 163.777 31.5078C164.379 31.7812 164.887 32.1836 165.301 32.7148C165.723 33.2383 166.055 33.8711 166.297 34.6133C166.539 35.3555 166.707 36.1953 166.801 37.1328V38.2109C166.715 39.1406 166.547 39.9766 166.297 40.7188C166.055 41.4609 165.723 42.0938 165.301 42.6172C164.887 43.1406 164.379 43.543 163.777 43.8242C163.176 44.0977 162.473 44.2344 161.668 44.2344C160.926 44.2344 160.246 44.0742 159.629 43.7539C159.02 43.4336 158.492 42.9844 158.047 42.4062C157.609 41.8281 157.27 41.1484 157.027 40.3672C156.793 39.5781 156.676 38.7227 156.676 37.8008ZM158.855 37.5547V37.8008C158.855 38.4336 158.918 39.0273 159.043 39.582C159.176 40.1367 159.379 40.625 159.652 41.0469C159.926 41.4688 160.273 41.8008 160.695 42.043C161.117 42.2773 161.621 42.3945 162.207 42.3945C162.926 42.3945 163.516 42.2422 163.977 41.9375C164.445 41.6328 164.82 41.2305 165.102 40.7305C165.383 40.2305 165.602 39.6875 165.758 39.1016V36.2773C165.664 35.8477 165.527 35.4336 165.348 35.0352C165.176 34.6289 164.949 34.2695 164.668 33.957C164.395 33.6367 164.055 33.3828 163.648 33.1953C163.25 33.0078 162.777 32.9141 162.23 32.9141C161.637 32.9141 161.125 33.0391 160.695 33.2891C160.273 33.5312 159.926 33.8672 159.652 34.2969C159.379 34.7188 159.176 35.2109 159.043 35.7734C158.918 36.3281 158.855 36.9219 158.855 37.5547ZM176.023 44.2344C175.141 44.2344 174.34 44.0859 173.621 43.7891C172.91 43.4844 172.297 43.0586 171.781 42.5117C171.273 41.9648 170.883 41.3164 170.609 40.5664C170.336 39.8164 170.199 38.9961 170.199 38.1055V37.6133C170.199 36.582 170.352 35.6641 170.656 34.8594C170.961 34.0469 171.375 33.3594 171.898 32.7969C172.422 32.2344 173.016 31.8086 173.68 31.5195C174.344 31.2305 175.031 31.0859 175.742 31.0859C176.648 31.0859 177.43 31.2422 178.086 31.5547C178.75 31.8672 179.293 32.3047 179.715 32.8672C180.137 33.4219 180.449 34.0781 180.652 34.8359C180.855 35.5859 180.957 36.4062 180.957 37.2969V38.2695H171.488V36.5H178.789V36.3359C178.758 35.7734 178.641 35.2266 178.438 34.6953C178.242 34.1641 177.93 33.7266 177.5 33.3828C177.07 33.0391 176.484 32.8672 175.742 32.8672C175.25 32.8672 174.797 32.9727 174.383 33.1836C173.969 33.3867 173.613 33.6914 173.316 34.0977C173.02 34.5039 172.789 35 172.625 35.5859C172.461 36.1719 172.379 36.8477 172.379 37.6133V38.1055C172.379 38.707 172.461 39.2734 172.625 39.8047C172.797 40.3281 173.043 40.7891 173.363 41.1875C173.691 41.5859 174.086 41.8984 174.547 42.125C175.016 42.3516 175.547 42.4648 176.141 42.4648C176.906 42.4648 177.555 42.3086 178.086 41.9961C178.617 41.6836 179.082 41.2656 179.48 40.7422L180.793 41.7852C180.52 42.1992 180.172 42.5938 179.75 42.9688C179.328 43.3438 178.809 43.6484 178.191 43.8828C177.582 44.1172 176.859 44.2344 176.023 44.2344ZM185.656 33.3125V44H183.488V31.3203H185.598L185.656 33.3125ZM189.617 31.25L189.605 33.2656C189.426 33.2266 189.254 33.2031 189.09 33.1953C188.934 33.1797 188.754 33.1719 188.551 33.1719C188.051 33.1719 187.609 33.25 187.227 33.4062C186.844 33.5625 186.52 33.7812 186.254 34.0625C185.988 34.3438 185.777 34.6797 185.621 35.0703C185.473 35.4531 185.375 35.875 185.328 36.3359L184.719 36.6875C184.719 35.9219 184.793 35.2031 184.941 34.5312C185.098 33.8594 185.336 33.2656 185.656 32.75C185.977 32.2266 186.383 31.8203 186.875 31.5312C187.375 31.2344 187.969 31.0859 188.656 31.0859C188.812 31.0859 188.992 31.1055 189.195 31.1445C189.398 31.1758 189.539 31.2109 189.617 31.25Z" fill="white"/>
<path d="M258.117 34.9297V36.0078C258.117 37.2891 257.957 38.4375 257.637 39.4531C257.316 40.4688 256.855 41.332 256.254 42.043C255.652 42.7539 254.93 43.2969 254.086 43.6719C253.25 44.0469 252.312 44.2344 251.273 44.2344C250.266 44.2344 249.34 44.0469 248.496 43.6719C247.66 43.2969 246.934 42.7539 246.316 42.043C245.707 41.332 245.234 40.4688 244.898 39.4531C244.562 38.4375 244.395 37.2891 244.395 36.0078V34.9297C244.395 33.6484 244.559 32.5039 244.887 31.4961C245.223 30.4805 245.695 29.6172 246.305 28.9062C246.914 28.1875 247.637 27.6406 248.473 27.2656C249.316 26.8906 250.242 26.7031 251.25 26.7031C252.289 26.7031 253.227 26.8906 254.062 27.2656C254.906 27.6406 255.629 28.1875 256.23 28.9062C256.84 29.6172 257.305 30.4805 257.625 31.4961C257.953 32.5039 258.117 33.6484 258.117 34.9297ZM255.879 36.0078V34.9062C255.879 33.8906 255.773 32.9922 255.562 32.2109C255.359 31.4297 255.059 30.7734 254.66 30.2422C254.262 29.7109 253.773 29.3086 253.195 29.0352C252.625 28.7617 251.977 28.625 251.25 28.625C250.547 28.625 249.91 28.7617 249.34 29.0352C248.777 29.3086 248.293 29.7109 247.887 30.2422C247.488 30.7734 247.18 31.4297 246.961 32.2109C246.742 32.9922 246.633 33.8906 246.633 34.9062V36.0078C246.633 37.0312 246.742 37.9375 246.961 38.7266C247.18 39.5078 247.492 40.168 247.898 40.707C248.312 41.2383 248.801 41.6406 249.363 41.9141C249.934 42.1875 250.57 42.3242 251.273 42.3242C252.008 42.3242 252.66 42.1875 253.23 41.9141C253.801 41.6406 254.281 41.2383 254.672 40.707C255.07 40.168 255.371 39.5078 255.574 38.7266C255.777 37.9375 255.879 37.0312 255.879 36.0078ZM263.344 33.3125V44H261.176V31.3203H263.285L263.344 33.3125ZM267.305 31.25L267.293 33.2656C267.113 33.2266 266.941 33.2031 266.777 33.1953C266.621 33.1797 266.441 33.1719 266.238 33.1719C265.738 33.1719 265.297 33.25 264.914 33.4062C264.531 33.5625 264.207 33.7812 263.941 34.0625C263.676 34.3438 263.465 34.6797 263.309 35.0703C263.16 35.4531 263.062 35.875 263.016 36.3359L262.406 36.6875C262.406 35.9219 262.48 35.2031 262.629 34.5312C262.785 33.8594 263.023 33.2656 263.344 32.75C263.664 32.2266 264.07 31.8203 264.562 31.5312C265.062 31.2344 265.656 31.0859 266.344 31.0859C266.5 31.0859 266.68 31.1055 266.883 31.1445C267.086 31.1758 267.227 31.2109 267.305 31.25ZM277.066 41.5391V26H279.246V44H277.254L277.066 41.5391ZM268.535 37.8008V37.5547C268.535 36.5859 268.652 35.707 268.887 34.918C269.129 34.1211 269.469 33.4375 269.906 32.8672C270.352 32.2969 270.879 31.8594 271.488 31.5547C272.105 31.2422 272.793 31.0859 273.551 31.0859C274.348 31.0859 275.043 31.2266 275.637 31.5078C276.238 31.7812 276.746 32.1836 277.16 32.7148C277.582 33.2383 277.914 33.8711 278.156 34.6133C278.398 35.3555 278.566 36.1953 278.66 37.1328V38.2109C278.574 39.1406 278.406 39.9766 278.156 40.7188C277.914 41.4609 277.582 42.0938 277.16 42.6172C276.746 43.1406 276.238 43.543 275.637 43.8242C275.035 44.0977 274.332 44.2344 273.527 44.2344C272.785 44.2344 272.105 44.0742 271.488 43.7539C270.879 43.4336 270.352 42.9844 269.906 42.4062C269.469 41.8281 269.129 41.1484 268.887 40.3672C268.652 39.5781 268.535 38.7227 268.535 37.8008ZM270.715 37.5547V37.8008C270.715 38.4336 270.777 39.0273 270.902 39.582C271.035 40.1367 271.238 40.625 271.512 41.0469C271.785 41.4688 272.133 41.8008 272.555 42.043C272.977 42.2773 273.48 42.3945 274.066 42.3945C274.785 42.3945 275.375 42.2422 275.836 41.9375C276.305 41.6328 276.68 41.2305 276.961 40.7305C277.242 40.2305 277.461 39.6875 277.617 39.1016V36.2773C277.523 35.8477 277.387 35.4336 277.207 35.0352C277.035 34.6289 276.809 34.2695 276.527 33.957C276.254 33.6367 275.914 33.3828 275.508 33.1953C275.109 33.0078 274.637 32.9141 274.09 32.9141C273.496 32.9141 272.984 33.0391 272.555 33.2891C272.133 33.5312 271.785 33.8672 271.512 34.2969C271.238 34.7188 271.035 35.2109 270.902 35.7734C270.777 36.3281 270.715 36.9219 270.715 37.5547ZM287.883 44.2344C287 44.2344 286.199 44.0859 285.48 43.7891C284.77 43.4844 284.156 43.0586 283.641 42.5117C283.133 41.9648 282.742 41.3164 282.469 40.5664C282.195 39.8164 282.059 38.9961 282.059 38.1055V37.6133C282.059 36.582 282.211 35.6641 282.516 34.8594C282.82 34.0469 283.234 33.3594 283.758 32.7969C284.281 32.2344 284.875 31.8086 285.539 31.5195C286.203 31.2305 286.891 31.0859 287.602 31.0859C288.508 31.0859 289.289 31.2422 289.945 31.5547C290.609 31.8672 291.152 32.3047 291.574 32.8672C291.996 33.4219 292.309 34.0781 292.512 34.8359C292.715 35.5859 292.816 36.4062 292.816 37.2969V38.2695H283.348V36.5H290.648V36.3359C290.617 35.7734 290.5 35.2266 290.297 34.6953C290.102 34.1641 289.789 33.7266 289.359 33.3828C288.93 33.0391 288.344 32.8672 287.602 32.8672C287.109 32.8672 286.656 32.9727 286.242 33.1836C285.828 33.3867 285.473 33.6914 285.176 34.0977C284.879 34.5039 284.648 35 284.484 35.5859C284.32 36.1719 284.238 36.8477 284.238 37.6133V38.1055C284.238 38.707 284.32 39.2734 284.484 39.8047C284.656 40.3281 284.902 40.7891 285.223 41.1875C285.551 41.5859 285.945 41.8984 286.406 42.125C286.875 42.3516 287.406 42.4648 288 42.4648C288.766 42.4648 289.414 42.3086 289.945 41.9961C290.477 41.6836 290.941 41.2656 291.34 40.7422L292.652 41.7852C292.379 42.1992 292.031 42.5938 291.609 42.9688C291.188 43.3438 290.668 43.6484 290.051 43.8828C289.441 44.1172 288.719 44.2344 287.883 44.2344ZM297.516 33.3125V44H295.348V31.3203H297.457L297.516 33.3125ZM301.477 31.25L301.465 33.2656C301.285 33.2266 301.113 33.2031 300.949 33.1953C300.793 33.1797 300.613 33.1719 300.41 33.1719C299.91 33.1719 299.469 33.25 299.086 33.4062C298.703 33.5625 298.379 33.7812 298.113 34.0625C297.848 34.3438 297.637 34.6797 297.48 35.0703C297.332 35.4531 297.234 35.875 297.188 36.3359L296.578 36.6875C296.578 35.9219 296.652 35.2031 296.801 34.5312C296.957 33.8594 297.195 33.2656 297.516 32.75C297.836 32.2266 298.242 31.8203 298.734 31.5312C299.234 31.2344 299.828 31.0859 300.516 31.0859C300.672 31.0859 300.852 31.1055 301.055 31.1445C301.258 31.1758 301.398 31.2109 301.477 31.25ZM311.027 26.9375L303.914 45.4648H302.051L309.176 26.9375H311.027ZM320.016 37.3086H315.457V35.4688H320.016C320.898 35.4688 321.613 35.3281 322.16 35.0469C322.707 34.7656 323.105 34.375 323.355 33.875C323.613 33.375 323.742 32.8047 323.742 32.1641C323.742 31.5781 323.613 31.0273 323.355 30.5117C323.105 29.9961 322.707 29.582 322.16 29.2695C321.613 28.9492 320.898 28.7891 320.016 28.7891H315.984V44H313.723V26.9375H320.016C321.305 26.9375 322.395 27.1602 323.285 27.6055C324.176 28.0508 324.852 28.668 325.312 29.457C325.773 30.2383 326.004 31.1328 326.004 32.1406C326.004 33.2344 325.773 34.168 325.312 34.9414C324.852 35.7148 324.176 36.3047 323.285 36.7109C322.395 37.1094 321.305 37.3086 320.016 37.3086ZM330.703 33.3125V44H328.535V31.3203H330.645L330.703 33.3125ZM334.664 31.25L334.652 33.2656C334.473 33.2266 334.301 33.2031 334.137 33.1953C333.98 33.1797 333.801 33.1719 333.598 33.1719C333.098 33.1719 332.656 33.25 332.273 33.4062C331.891 33.5625 331.566 33.7812 331.301 34.0625C331.035 34.3438 330.824 34.6797 330.668 35.0703C330.52 35.4531 330.422 35.875 330.375 36.3359L329.766 36.6875C329.766 35.9219 329.84 35.2031 329.988 34.5312C330.145 33.8594 330.383 33.2656 330.703 32.75C331.023 32.2266 331.43 31.8203 331.922 31.5312C332.422 31.2344 333.016 31.0859 333.703 31.0859C333.859 31.0859 334.039 31.1055 334.242 31.1445C334.445 31.1758 334.586 31.2109 334.664 31.25ZM341.695 44.2344C340.812 44.2344 340.012 44.0859 339.293 43.7891C338.582 43.4844 337.969 43.0586 337.453 42.5117C336.945 41.9648 336.555 41.3164 336.281 40.5664C336.008 39.8164 335.871 38.9961 335.871 38.1055V37.6133C335.871 36.582 336.023 35.6641 336.328 34.8594C336.633 34.0469 337.047 33.3594 337.57 32.7969C338.094 32.2344 338.688 31.8086 339.352 31.5195C340.016 31.2305 340.703 31.0859 341.414 31.0859C342.32 31.0859 343.102 31.2422 343.758 31.5547C344.422 31.8672 344.965 32.3047 345.387 32.8672C345.809 33.4219 346.121 34.0781 346.324 34.8359C346.527 35.5859 346.629 36.4062 346.629 37.2969V38.2695H337.16V36.5H344.461V36.3359C344.43 35.7734 344.312 35.2266 344.109 34.6953C343.914 34.1641 343.602 33.7266 343.172 33.3828C342.742 33.0391 342.156 32.8672 341.414 32.8672C340.922 32.8672 340.469 32.9727 340.055 33.1836C339.641 33.3867 339.285 33.6914 338.988 34.0977C338.691 34.5039 338.461 35 338.297 35.5859C338.133 36.1719 338.051 36.8477 338.051 37.6133V38.1055C338.051 38.707 338.133 39.2734 338.297 39.8047C338.469 40.3281 338.715 40.7891 339.035 41.1875C339.363 41.5859 339.758 41.8984 340.219 42.125C340.688 42.3516 341.219 42.4648 341.812 42.4648C342.578 42.4648 343.227 42.3086 343.758 41.9961C344.289 41.6836 344.754 41.2656 345.152 40.7422L346.465 41.7852C346.191 42.1992 345.844 42.5938 345.422 42.9688C345 43.3438 344.48 43.6484 343.863 43.8828C343.254 44.1172 342.531 44.2344 341.695 44.2344ZM353.672 35.8555V37.6367H347.953V35.8555H353.672ZM369.258 34.9297V36.0078C369.258 37.2891 369.098 38.4375 368.777 39.4531C368.457 40.4688 367.996 41.332 367.395 42.043C366.793 42.7539 366.07 43.2969 365.227 43.6719C364.391 44.0469 363.453 44.2344 362.414 44.2344C361.406 44.2344 360.48 44.0469 359.637 43.6719C358.801 43.2969 358.074 42.7539 357.457 42.043C356.848 41.332 356.375 40.4688 356.039 39.4531C355.703 38.4375 355.535 37.2891 355.535 36.0078V34.9297C355.535 33.6484 355.699 32.5039 356.027 31.4961C356.363 30.4805 356.836 29.6172 357.445 28.9062C358.055 28.1875 358.777 27.6406 359.613 27.2656C360.457 26.8906 361.383 26.7031 362.391 26.7031C363.43 26.7031 364.367 26.8906 365.203 27.2656C366.047 27.6406 366.77 28.1875 367.371 28.9062C367.98 29.6172 368.445 30.4805 368.766 31.4961C369.094 32.5039 369.258 33.6484 369.258 34.9297ZM367.02 36.0078V34.9062C367.02 33.8906 366.914 32.9922 366.703 32.2109C366.5 31.4297 366.199 30.7734 365.801 30.2422C365.402 29.7109 364.914 29.3086 364.336 29.0352C363.766 28.7617 363.117 28.625 362.391 28.625C361.688 28.625 361.051 28.7617 360.48 29.0352C359.918 29.3086 359.434 29.7109 359.027 30.2422C358.629 30.7734 358.32 31.4297 358.102 32.2109C357.883 32.9922 357.773 33.8906 357.773 34.9062V36.0078C357.773 37.0312 357.883 37.9375 358.102 38.7266C358.32 39.5078 358.633 40.168 359.039 40.707C359.453 41.2383 359.941 41.6406 360.504 41.9141C361.074 42.1875 361.711 42.3242 362.414 42.3242C363.148 42.3242 363.801 42.1875 364.371 41.9141C364.941 41.6406 365.422 41.2383 365.812 40.707C366.211 40.168 366.512 39.5078 366.715 38.7266C366.918 37.9375 367.02 37.0312 367.02 36.0078ZM374.484 33.3125V44H372.316V31.3203H374.426L374.484 33.3125ZM378.445 31.25L378.434 33.2656C378.254 33.2266 378.082 33.2031 377.918 33.1953C377.762 33.1797 377.582 33.1719 377.379 33.1719C376.879 33.1719 376.438 33.25 376.055 33.4062C375.672 33.5625 375.348 33.7812 375.082 34.0625C374.816 34.3438 374.605 34.6797 374.449 35.0703C374.301 35.4531 374.203 35.875 374.156 36.3359L373.547 36.6875C373.547 35.9219 373.621 35.2031 373.77 34.5312C373.926 33.8594 374.164 33.2656 374.484 32.75C374.805 32.2266 375.211 31.8203 375.703 31.5312C376.203 31.2344 376.797 31.0859 377.484 31.0859C377.641 31.0859 377.82 31.1055 378.023 31.1445C378.227 31.1758 378.367 31.2109 378.445 31.25ZM388.207 41.5391V26H390.387V44H388.395L388.207 41.5391ZM379.676 37.8008V37.5547C379.676 36.5859 379.793 35.707 380.027 34.918C380.27 34.1211 380.609 33.4375 381.047 32.8672C381.492 32.2969 382.02 31.8594 382.629 31.5547C383.246 31.2422 383.934 31.0859 384.691 31.0859C385.488 31.0859 386.184 31.2266 386.777 31.5078C387.379 31.7812 387.887 32.1836 388.301 32.7148C388.723 33.2383 389.055 33.8711 389.297 34.6133C389.539 35.3555 389.707 36.1953 389.801 37.1328V38.2109C389.715 39.1406 389.547 39.9766 389.297 40.7188C389.055 41.4609 388.723 42.0938 388.301 42.6172C387.887 43.1406 387.379 43.543 386.777 43.8242C386.176 44.0977 385.473 44.2344 384.668 44.2344C383.926 44.2344 383.246 44.0742 382.629 43.7539C382.02 43.4336 381.492 42.9844 381.047 42.4062C380.609 41.8281 380.27 41.1484 380.027 40.3672C379.793 39.5781 379.676 38.7227 379.676 37.8008ZM381.855 37.5547V37.8008C381.855 38.4336 381.918 39.0273 382.043 39.582C382.176 40.1367 382.379 40.625 382.652 41.0469C382.926 41.4688 383.273 41.8008 383.695 42.043C384.117 42.2773 384.621 42.3945 385.207 42.3945C385.926 42.3945 386.516 42.2422 386.977 41.9375C387.445 41.6328 387.82 41.2305 388.102 40.7305C388.383 40.2305 388.602 39.6875 388.758 39.1016V36.2773C388.664 35.8477 388.527 35.4336 388.348 35.0352C388.176 34.6289 387.949 34.2695 387.668 33.957C387.395 33.6367 387.055 33.3828 386.648 33.1953C386.25 33.0078 385.777 32.9141 385.23 32.9141C384.637 32.9141 384.125 33.0391 383.695 33.2891C383.273 33.5312 382.926 33.8672 382.652 34.2969C382.379 34.7188 382.176 35.2109 382.043 35.7734C381.918 36.3281 381.855 36.9219 381.855 37.5547ZM399.023 44.2344C398.141 44.2344 397.34 44.0859 396.621 43.7891C395.91 43.4844 395.297 43.0586 394.781 42.5117C394.273 41.9648 393.883 41.3164 393.609 40.5664C393.336 39.8164 393.199 38.9961 393.199 38.1055V37.6133C393.199 36.582 393.352 35.6641 393.656 34.8594C393.961 34.0469 394.375 33.3594 394.898 32.7969C395.422 32.2344 396.016 31.8086 396.68 31.5195C397.344 31.2305 398.031 31.0859 398.742 31.0859C399.648 31.0859 400.43 31.2422 401.086 31.5547C401.75 31.8672 402.293 32.3047 402.715 32.8672C403.137 33.4219 403.449 34.0781 403.652 34.8359C403.855 35.5859 403.957 36.4062 403.957 37.2969V38.2695H394.488V36.5H401.789V36.3359C401.758 35.7734 401.641 35.2266 401.438 34.6953C401.242 34.1641 400.93 33.7266 400.5 33.3828C400.07 33.0391 399.484 32.8672 398.742 32.8672C398.25 32.8672 397.797 32.9727 397.383 33.1836C396.969 33.3867 396.613 33.6914 396.316 34.0977C396.02 34.5039 395.789 35 395.625 35.5859C395.461 36.1719 395.379 36.8477 395.379 37.6133V38.1055C395.379 38.707 395.461 39.2734 395.625 39.8047C395.797 40.3281 396.043 40.7891 396.363 41.1875C396.691 41.5859 397.086 41.8984 397.547 42.125C398.016 42.3516 398.547 42.4648 399.141 42.4648C399.906 42.4648 400.555 42.3086 401.086 41.9961C401.617 41.6836 402.082 41.2656 402.48 40.7422L403.793 41.7852C403.52 42.1992 403.172 42.5938 402.75 42.9688C402.328 43.3438 401.809 43.6484 401.191 43.8828C400.582 44.1172 399.859 44.2344 399.023 44.2344ZM408.656 33.3125V44H406.488V31.3203H408.598L408.656 33.3125ZM412.617 31.25L412.605 33.2656C412.426 33.2266 412.254 33.2031 412.09 33.1953C411.934 33.1797 411.754 33.1719 411.551 33.1719C411.051 33.1719 410.609 33.25 410.227 33.4062C409.844 33.5625 409.52 33.7812 409.254 34.0625C408.988 34.3438 408.777 34.6797 408.621 35.0703C408.473 35.4531 408.375 35.875 408.328 36.3359L407.719 36.6875C407.719 35.9219 407.793 35.2031 407.941 34.5312C408.098 33.8594 408.336 33.2656 408.656 32.75C408.977 32.2266 409.383 31.8203 409.875 31.5312C410.375 31.2344 410.969 31.0859 411.656 31.0859C411.812 31.0859 411.992 31.1055 412.195 31.1445C412.398 31.1758 412.539 31.2109 412.617 31.25Z" fill="url(#paint0_linear_34_315)"/>
<defs>
<linearGradient id="paint0_linear_34_315" x1="243" y1="36" x2="413" y2="36" gradientUnits="userSpaceOnUse">
<stop offset="0.485" stop-color="#6B9178"/>
<stop offset="1" stop-color="#202B24"/>
</linearGradient>
</defs>
</svg>
