<svg width="89" height="69" viewBox="0 0 89 69" fill="none" xmlns="http://www.w3.org/2000/svg">
<g filter="url(#filter0_d_26_203)">
<rect x="4" width="81" height="61" rx="15" fill="#89B391"/>
<path d="M33.585 29.185C36.105 33.43 40.165 36.895 45.1175 39.07L48.9675 35.77C49.44 35.365 50.14 35.23 50.7525 35.41C52.7125 35.965 54.83 36.265 57 36.265C57.9625 36.265 58.75 36.94 58.75 37.765V43C58.75 43.825 57.9625 44.5 57 44.5C40.5675 44.5 27.25 33.085 27.25 19C27.25 18.175 28.0375 17.5 29 17.5H35.125C36.0875 17.5 36.875 18.175 36.875 19C36.875 20.875 37.225 22.675 37.8725 24.355C38.065 24.88 37.925 25.465 37.435 25.885L33.585 29.185Z" fill="#202B24"/>
</g>
<defs>
<filter id="filter0_d_26_203" x="0" y="0" width="89" height="69" filterUnits="userSpaceOnUse" color-interpolation-filters="sRGB">
<feFlood flood-opacity="0" result="BackgroundImageFix"/>
<feColorMatrix in="SourceAlpha" type="matrix" values="0 0 0 0 0 0 0 0 0 0 0 0 0 0 0 0 0 0 127 0" result="hardAlpha"/>
<feOffset dy="4"/>
<feGaussianBlur stdDeviation="2"/>
<feComposite in2="hardAlpha" operator="out"/>
<feColorMatrix type="matrix" values="0 0 0 0 0 0 0 0 0 0 0 0 0 0 0 0 0 0 0.25 0"/>
<feBlend mode="normal" in2="BackgroundImageFix" result="effect1_dropShadow_26_203"/>
<feBlend mode="normal" in="SourceGraphic" in2="effect1_dropShadow_26_203" result="shape"/>
</filter>
</defs>
</svg>
