<svg width="89" height="69" viewBox="0 0 89 69" fill="none" xmlns="http://www.w3.org/2000/svg">
<g filter="url(#filter0_d_26_206)">
<rect x="4" width="81" height="61" rx="15" fill="#89B391"/>
<path d="M51.5312 35.1666C51.1583 35.1666 50.8006 35.2983 50.5369 35.5328C50.2732 35.7672 50.125 36.0851 50.125 36.4166C50.125 36.7482 50.2732 37.0661 50.5369 37.3005C50.8006 37.535 51.1583 37.6666 51.5312 37.6666H56.2188C56.5917 37.6666 56.9494 37.535 57.2131 37.3005C57.4768 37.0661 57.625 36.7482 57.625 36.4166C57.625 36.0851 57.4768 35.7672 57.2131 35.5328C56.9494 35.2983 56.5917 35.1666 56.2188 35.1666H51.5312ZM25.75 24.75C25.75 23.3134 26.392 21.9356 27.5348 20.9198C28.6776 19.904 30.2276 19.3333 31.8438 19.3333H57.1562C57.9565 19.3333 58.7489 19.4734 59.4882 19.7456C60.2276 20.0178 60.8993 20.4168 61.4652 20.9198C62.031 21.4228 62.4799 22.0199 62.7861 22.6771C63.0924 23.3343 63.25 24.0387 63.25 24.75V37.25C63.25 37.9613 63.0924 38.6657 62.7861 39.3228C62.4799 39.98 62.031 40.5772 61.4652 41.0801C60.8993 41.5831 60.2276 41.9821 59.4882 42.2543C58.7489 42.5265 57.9565 42.6666 57.1562 42.6666H31.8438C30.2276 42.6666 28.6776 42.096 27.5348 41.0801C26.392 40.0643 25.75 38.6866 25.75 37.25V24.75ZM60.4375 26.8333V24.75C60.4375 23.9764 60.0918 23.2346 59.4764 22.6876C58.8611 22.1406 58.0265 21.8333 57.1562 21.8333H31.8438C30.9735 21.8333 30.1389 22.1406 29.5236 22.6876C28.9082 23.2346 28.5625 23.9764 28.5625 24.75V26.8333H60.4375ZM28.5625 29.3333V37.25C28.5625 38.86 30.0325 40.1666 31.8438 40.1666H57.1562C58.0265 40.1666 58.8611 39.8594 59.4764 39.3124C60.0918 38.7654 60.4375 38.0235 60.4375 37.25V29.3333H28.5625Z" fill="#202B24"/>
</g>
<defs>
<filter id="filter0_d_26_206" x="0" y="0" width="89" height="69" filterUnits="userSpaceOnUse" color-interpolation-filters="sRGB">
<feFlood flood-opacity="0" result="BackgroundImageFix"/>
<feColorMatrix in="SourceAlpha" type="matrix" values="0 0 0 0 0 0 0 0 0 0 0 0 0 0 0 0 0 0 127 0" result="hardAlpha"/>
<feOffset dy="4"/>
<feGaussianBlur stdDeviation="2"/>
<feComposite in2="hardAlpha" operator="out"/>
<feColorMatrix type="matrix" values="0 0 0 0 0 0 0 0 0 0 0 0 0 0 0 0 0 0 0.25 0"/>
<feBlend mode="normal" in2="BackgroundImageFix" result="effect1_dropShadow_26_206"/>
<feBlend mode="normal" in="SourceGraphic" in2="effect1_dropShadow_26_206" result="shape"/>
</filter>
</defs>
</svg>
