<svg width="413" height="230" viewBox="0 0 413 230" fill="none" xmlns="http://www.w3.org/2000/svg">
<g clip-path="url(#clip0_13_60)">
<mask id="mask0_13_60" style="mask-type:alpha" maskUnits="userSpaceOnUse" x="58" y="40" width="299" height="139">
<path d="M86.901 74.072C86.517 74.392 85.797 74.824 84.741 75.368C83.717 75.912 82.453 76.392 80.949 76.808C79.445 77.224 77.781 77.416 75.957 77.384C73.173 77.32 70.677 76.824 68.469 75.896C66.293 74.936 64.437 73.64 62.901 72.008C61.397 70.376 60.245 68.504 59.445 66.392C58.645 64.28 58.245 62.024 58.245 59.624C58.245 56.936 58.645 54.472 59.445 52.232C60.277 49.992 61.445 48.056 62.949 46.424C64.485 44.792 66.309 43.528 68.421 42.632C70.533 41.736 72.869 41.288 75.429 41.288C77.797 41.288 79.893 41.608 81.717 42.248C83.541 42.888 85.029 43.576 86.181 44.312L83.445 50.888C82.645 50.28 81.573 49.656 80.229 49.016C78.917 48.344 77.397 48.008 75.669 48.008C74.325 48.008 73.029 48.296 71.781 48.872C70.565 49.416 69.477 50.2 68.517 51.224C67.589 52.248 66.853 53.448 66.309 54.824C65.765 56.168 65.493 57.64 65.493 59.24C65.493 60.936 65.733 62.488 66.213 63.896C66.725 65.304 67.445 66.52 68.373 67.544C69.301 68.536 70.405 69.304 71.685 69.848C72.997 70.392 74.469 70.664 76.101 70.664C77.989 70.664 79.605 70.36 80.949 69.752C82.293 69.144 83.317 68.504 84.021 67.832L86.901 74.072ZM91.2838 59.384C91.2838 56.952 91.7478 54.648 92.6758 52.472C93.6038 50.296 94.8838 48.376 96.5158 46.712C98.1798 45.016 100.1 43.688 102.276 42.728C104.452 41.768 106.788 41.288 109.284 41.288C111.748 41.288 114.068 41.768 116.244 42.728C118.42 43.688 120.34 45.016 122.004 46.712C123.7 48.376 125.012 50.296 125.94 52.472C126.9 54.648 127.38 56.952 127.38 59.384C127.38 61.88 126.9 64.216 125.94 66.392C125.012 68.568 123.7 70.488 122.004 72.152C120.34 73.784 118.42 75.064 116.244 75.992C114.068 76.92 111.748 77.384 109.284 77.384C106.788 77.384 104.452 76.92 102.276 75.992C100.1 75.064 98.1798 73.784 96.5158 72.152C94.8838 70.488 93.6038 68.568 92.6758 66.392C91.7478 64.216 91.2838 61.88 91.2838 59.384ZM98.4838 59.384C98.4838 60.952 98.7558 62.424 99.2998 63.8C99.8758 65.144 100.66 66.344 101.652 67.4C102.676 68.424 103.844 69.224 105.156 69.8C106.5 70.376 107.956 70.664 109.524 70.664C111.028 70.664 112.42 70.376 113.7 69.8C115.012 69.224 116.148 68.424 117.108 67.4C118.068 66.344 118.82 65.144 119.364 63.8C119.908 62.424 120.18 60.952 120.18 59.384C120.18 57.784 119.892 56.296 119.316 54.92C118.772 53.544 118.004 52.344 117.012 51.32C116.052 50.264 114.916 49.448 113.604 48.872C112.292 48.296 110.868 48.008 109.332 48.008C107.796 48.008 106.372 48.296 105.06 48.872C103.748 49.448 102.596 50.264 101.604 51.32C100.612 52.344 99.8438 53.544 99.2998 54.92C98.7558 56.296 98.4838 57.784 98.4838 59.384ZM133.889 77V40.232H133.937L153.569 68.072L150.593 67.4L170.177 40.232H170.273V77H163.313V55.928L163.745 59.528L151.793 76.52H151.697L139.409 59.528L140.609 56.216V77H133.889ZM178.974 77V40.232H179.022L198.654 68.072L195.678 67.4L215.262 40.232H215.358V77H208.398V55.928L208.83 59.528L196.878 76.52H196.782L184.494 59.528L185.694 56.216V77H178.974ZM230.3 63.944C230.3 65.064 230.636 66.136 231.308 67.16C231.98 68.184 232.86 69.016 233.948 69.656C235.068 70.296 236.284 70.616 237.596 70.616C239.036 70.616 240.316 70.296 241.436 69.656C242.556 69.016 243.436 68.184 244.076 67.16C244.748 66.136 245.084 65.064 245.084 63.944V41.672H251.948V64.088C251.948 66.68 251.308 68.984 250.028 71C248.748 72.984 247.02 74.552 244.844 75.704C242.668 76.824 240.252 77.384 237.596 77.384C234.972 77.384 232.572 76.824 230.396 75.704C228.252 74.552 226.54 72.984 225.26 71C223.98 68.984 223.34 66.68 223.34 64.088V41.672H230.3V63.944ZM291.543 78.44L264.759 54.248L266.823 55.4L266.967 77H259.911V40.28H260.199L286.407 64.376L284.871 63.704L284.727 41.672H291.735V78.44H291.543ZM296.419 77L312.355 40.28H312.739L328.675 77H320.611L310.435 51.176L315.475 47.72L303.283 77H296.419ZM307.315 64.232H317.923L320.371 70.088H305.155L307.315 64.232ZM333.395 41.672H340.355V70.28H356.963V77H333.395V41.672ZM117.21 100.216C115.866 99.48 114.49 98.872 113.082 98.392C111.706 97.912 110.41 97.672 109.194 97.672C107.69 97.672 106.506 97.976 105.642 98.584C104.778 99.192 104.346 100.104 104.346 101.32C104.346 102.152 104.666 102.904 105.306 103.576C105.978 104.216 106.826 104.792 107.85 105.304C108.906 105.816 109.994 106.28 111.114 106.696C112.138 107.08 113.146 107.544 114.138 108.088C115.162 108.6 116.074 109.256 116.874 110.056C117.674 110.824 118.314 111.8 118.794 112.984C119.274 114.136 119.514 115.56 119.514 117.256C119.514 119.048 119.05 120.712 118.122 122.248C117.194 123.784 115.834 125.032 114.042 125.992C112.25 126.92 110.042 127.384 107.418 127.384C106.074 127.384 104.698 127.256 103.29 127C101.914 126.712 100.554 126.296 99.2102 125.752C97.8662 125.176 96.5702 124.456 95.3222 123.592L98.3942 118.168C99.2262 118.776 100.122 119.32 101.082 119.8C102.074 120.248 103.066 120.6 104.058 120.856C105.05 121.112 105.962 121.24 106.794 121.24C107.626 121.24 108.458 121.128 109.29 120.904C110.154 120.648 110.858 120.232 111.402 119.656C111.978 119.08 112.266 118.28 112.266 117.256C112.266 116.552 112.026 115.912 111.546 115.336C111.098 114.76 110.474 114.232 109.674 113.752C108.906 113.272 108.058 112.856 107.13 112.504C106.042 112.088 104.922 111.608 103.77 111.064C102.618 110.52 101.53 109.864 100.506 109.096C99.5142 108.296 98.6982 107.32 98.0582 106.168C97.4502 104.984 97.1462 103.544 97.1462 101.848C97.1462 99.8 97.5942 98.024 98.4902 96.52C99.4182 95.016 100.714 93.832 102.378 92.968C104.042 92.072 105.962 91.576 108.138 91.48C110.986 91.48 113.29 91.816 115.05 92.488C116.842 93.16 118.442 93.96 119.85 94.888L117.21 100.216ZM123.501 91.672H147.309V98.392H138.717V127H131.757V98.392H123.501V91.672ZM159.836 113.944C159.836 115.064 160.172 116.136 160.844 117.16C161.516 118.184 162.396 119.016 163.484 119.656C164.604 120.296 165.82 120.616 167.132 120.616C168.572 120.616 169.852 120.296 170.972 119.656C172.092 119.016 172.972 118.184 173.612 117.16C174.284 116.136 174.62 115.064 174.62 113.944V91.672H181.484V114.088C181.484 116.68 180.844 118.984 179.564 121C178.284 122.984 176.556 124.552 174.38 125.704C172.204 126.824 169.788 127.384 167.132 127.384C164.508 127.384 162.108 126.824 159.932 125.704C157.788 124.552 156.076 122.984 154.796 121C153.516 118.984 152.876 116.68 152.876 114.088V91.672H159.836V113.944ZM189.447 127V91.672H200.007C203.559 91.672 206.583 92.2 209.079 93.256C211.575 94.312 213.575 95.72 215.079 97.48C216.615 99.24 217.735 101.208 218.439 103.384C219.143 105.56 219.495 107.752 219.495 109.96C219.495 112.584 219.015 114.952 218.055 117.064C217.127 119.144 215.847 120.936 214.215 122.44C212.583 123.912 210.695 125.048 208.551 125.848C206.407 126.616 204.135 127 201.735 127H189.447ZM196.407 120.28H200.535C202.295 120.28 203.895 120.056 205.335 119.608C206.775 119.128 208.007 118.44 209.031 117.544C210.087 116.648 210.887 115.528 211.431 114.184C212.007 112.808 212.295 111.24 212.295 109.48C212.295 107.176 211.911 105.304 211.143 103.864C210.407 102.392 209.479 101.256 208.359 100.456C207.271 99.656 206.151 99.112 204.999 98.824C203.847 98.504 202.871 98.344 202.071 98.344H196.407V120.28ZM226.048 91.672H250.144V98.392H233.008V105.928H248.176V112.648H233.008V120.28H250.816V127H226.048V91.672ZM289.219 128.44L262.435 104.248L264.499 105.4L264.643 127H257.587V90.28H257.875L284.083 114.376L282.547 113.704L282.403 91.672H289.411V128.44H289.219ZM295.679 91.672H319.487V98.392H310.895V127H303.935V98.392H295.679V91.672ZM119.448 174.072C119.064 174.392 118.344 174.824 117.288 175.368C116.264 175.912 115 176.392 113.496 176.808C111.992 177.224 110.328 177.416 108.504 177.384C105.72 177.32 103.224 176.824 101.016 175.896C98.8396 174.936 96.9836 173.64 95.4476 172.008C93.9436 170.376 92.7916 168.504 91.9916 166.392C91.1916 164.28 90.7916 162.024 90.7916 159.624C90.7916 156.936 91.1916 154.472 91.9916 152.232C92.8236 149.992 93.9916 148.056 95.4956 146.424C97.0316 144.792 98.8556 143.528 100.968 142.632C103.08 141.736 105.416 141.288 107.976 141.288C110.344 141.288 112.44 141.608 114.264 142.248C116.088 142.888 117.576 143.576 118.728 144.312L115.992 150.888C115.192 150.28 114.12 149.656 112.776 149.016C111.464 148.344 109.944 148.008 108.216 148.008C106.872 148.008 105.576 148.296 104.328 148.872C103.112 149.416 102.024 150.2 101.064 151.224C100.136 152.248 99.3996 153.448 98.8556 154.824C98.3116 156.168 98.0396 157.64 98.0396 159.24C98.0396 160.936 98.2796 162.488 98.7596 163.896C99.2716 165.304 99.9916 166.52 100.92 167.544C101.848 168.536 102.952 169.304 104.232 169.848C105.544 170.392 107.016 170.664 108.648 170.664C110.536 170.664 112.152 170.36 113.496 169.752C114.84 169.144 115.864 168.504 116.568 167.832L119.448 174.072ZM122.006 177L137.942 140.28H138.326L154.262 177H146.198L136.022 151.176L141.062 147.72L128.87 177H122.006ZM132.902 164.232H143.51L145.958 170.088H130.742L132.902 164.232ZM190.614 178.44L163.83 154.248L165.894 155.4L166.038 177H158.982V140.28H159.27L185.478 164.376L183.942 163.704L183.798 141.672H190.806V178.44H190.614ZM197.074 141.672H220.882V148.392H212.29V177H205.33V148.392H197.074V141.672ZM227.169 141.672H251.265V148.392H234.129V155.928H249.297V162.648H234.129V170.28H251.937V177H227.169V141.672ZM258.708 141.672H282.804V148.392H265.668V155.928H280.836V162.648H265.668V170.28H283.476V177H258.708V141.672ZM321.879 178.44L295.095 154.248L297.159 155.4L297.303 177H290.247V140.28H290.535L316.743 164.376L315.207 163.704L315.063 141.672H322.071V178.44H321.879Z" fill="white"/>
</mask>
<g mask="url(#mask0_13_60)">
<g filter="url(#filter0_f_13_60)">
<path d="M407.5 179L421.757 214.24L467.892 214.24L430.568 236.02L444.824 271.26L407.5 249.48L370.176 271.26L384.432 236.02L347.108 214.24L393.243 214.24L407.5 179Z" fill="#89B391"/>
</g>
<g filter="url(#filter1_f_13_60)">
<path d="M-29.0052 112L99.4948 272.5L-126 256L-29.0052 112Z" fill="#689368"/>
</g>
<g filter="url(#filter2_f_13_60)">
<ellipse cx="-13" cy="-19.5" rx="92" ry="80.5" fill="#B7C5B7"/>
</g>
</g>
</g>
<defs>
<filter id="filter0_f_13_60" x="337.108" y="169" width="140.784" height="112.26" filterUnits="userSpaceOnUse" color-interpolation-filters="sRGB">
<feFlood flood-opacity="0" result="BackgroundImageFix"/>
<feBlend mode="normal" in="SourceGraphic" in2="BackgroundImageFix" result="shape"/>
<feGaussianBlur stdDeviation="5" result="effect1_foregroundBlur_13_60"/>
</filter>
<filter id="filter1_f_13_60" x="-136" y="102" width="245.495" height="180.5" filterUnits="userSpaceOnUse" color-interpolation-filters="sRGB">
<feFlood flood-opacity="0" result="BackgroundImageFix"/>
<feBlend mode="normal" in="SourceGraphic" in2="BackgroundImageFix" result="shape"/>
<feGaussianBlur stdDeviation="5" result="effect1_foregroundBlur_13_60"/>
</filter>
<filter id="filter2_f_13_60" x="-115" y="-110" width="204" height="181" filterUnits="userSpaceOnUse" color-interpolation-filters="sRGB">
<feFlood flood-opacity="0" result="BackgroundImageFix"/>
<feBlend mode="normal" in="SourceGraphic" in2="BackgroundImageFix" result="shape"/>
<feGaussianBlur stdDeviation="5" result="effect1_foregroundBlur_13_60"/>
</filter>
<clipPath id="clip0_13_60">
<rect width="413" height="230" fill="white"/>
</clipPath>
</defs>
</svg>
