<svg width="438" height="233" viewBox="0 0 438 233" fill="none" xmlns="http://www.w3.org/2000/svg">
<mask id="mask0_13_55" style="mask-type:alpha" maskUnits="userSpaceOnUse" x="70" y="42" width="299" height="139">
<path d="M98.901 76.072C98.517 76.392 97.797 76.824 96.741 77.368C95.717 77.912 94.453 78.392 92.949 78.808C91.445 79.224 89.781 79.416 87.957 79.384C85.173 79.32 82.677 78.824 80.469 77.896C78.293 76.936 76.437 75.64 74.901 74.008C73.397 72.376 72.245 70.504 71.445 68.392C70.645 66.28 70.245 64.024 70.245 61.624C70.245 58.936 70.645 56.472 71.445 54.232C72.277 51.992 73.445 50.056 74.949 48.424C76.485 46.792 78.309 45.528 80.421 44.632C82.533 43.736 84.869 43.288 87.429 43.288C89.797 43.288 91.893 43.608 93.717 44.248C95.541 44.888 97.029 45.576 98.181 46.312L95.445 52.888C94.645 52.28 93.573 51.656 92.229 51.016C90.917 50.344 89.397 50.008 87.669 50.008C86.325 50.008 85.029 50.296 83.781 50.872C82.565 51.416 81.477 52.2 80.517 53.224C79.589 54.248 78.853 55.448 78.309 56.824C77.765 58.168 77.493 59.64 77.493 61.24C77.493 62.936 77.733 64.488 78.213 65.896C78.725 67.304 79.445 68.52 80.373 69.544C81.301 70.536 82.405 71.304 83.685 71.848C84.997 72.392 86.469 72.664 88.101 72.664C89.989 72.664 91.605 72.36 92.949 71.752C94.293 71.144 95.317 70.504 96.021 69.832L98.901 76.072ZM103.284 61.384C103.284 58.952 103.748 56.648 104.676 54.472C105.604 52.296 106.884 50.376 108.516 48.712C110.18 47.016 112.1 45.688 114.276 44.728C116.452 43.768 118.788 43.288 121.284 43.288C123.748 43.288 126.068 43.768 128.244 44.728C130.42 45.688 132.34 47.016 134.004 48.712C135.7 50.376 137.012 52.296 137.94 54.472C138.9 56.648 139.38 58.952 139.38 61.384C139.38 63.88 138.9 66.216 137.94 68.392C137.012 70.568 135.7 72.488 134.004 74.152C132.34 75.784 130.42 77.064 128.244 77.992C126.068 78.92 123.748 79.384 121.284 79.384C118.788 79.384 116.452 78.92 114.276 77.992C112.1 77.064 110.18 75.784 108.516 74.152C106.884 72.488 105.604 70.568 104.676 68.392C103.748 66.216 103.284 63.88 103.284 61.384ZM110.484 61.384C110.484 62.952 110.756 64.424 111.3 65.8C111.876 67.144 112.66 68.344 113.652 69.4C114.676 70.424 115.844 71.224 117.156 71.8C118.5 72.376 119.956 72.664 121.524 72.664C123.028 72.664 124.42 72.376 125.7 71.8C127.012 71.224 128.148 70.424 129.108 69.4C130.068 68.344 130.82 67.144 131.364 65.8C131.908 64.424 132.18 62.952 132.18 61.384C132.18 59.784 131.892 58.296 131.316 56.92C130.772 55.544 130.004 54.344 129.012 53.32C128.052 52.264 126.916 51.448 125.604 50.872C124.292 50.296 122.868 50.008 121.332 50.008C119.796 50.008 118.372 50.296 117.06 50.872C115.748 51.448 114.596 52.264 113.604 53.32C112.612 54.344 111.844 55.544 111.3 56.92C110.756 58.296 110.484 59.784 110.484 61.384ZM145.889 79V42.232H145.937L165.569 70.072L162.593 69.4L182.177 42.232H182.273V79H175.313V57.928L175.745 61.528L163.793 78.52H163.697L151.409 61.528L152.609 58.216V79H145.889ZM190.974 79V42.232H191.022L210.654 70.072L207.678 69.4L227.262 42.232H227.358V79H220.398V57.928L220.83 61.528L208.878 78.52H208.782L196.494 61.528L197.694 58.216V79H190.974ZM242.3 65.944C242.3 67.064 242.636 68.136 243.308 69.16C243.98 70.184 244.86 71.016 245.948 71.656C247.068 72.296 248.284 72.616 249.596 72.616C251.036 72.616 252.316 72.296 253.436 71.656C254.556 71.016 255.436 70.184 256.076 69.16C256.748 68.136 257.084 67.064 257.084 65.944V43.672H263.948V66.088C263.948 68.68 263.308 70.984 262.028 73C260.748 74.984 259.02 76.552 256.844 77.704C254.668 78.824 252.252 79.384 249.596 79.384C246.972 79.384 244.572 78.824 242.396 77.704C240.252 76.552 238.54 74.984 237.26 73C235.98 70.984 235.34 68.68 235.34 66.088V43.672H242.3V65.944ZM303.543 80.44L276.759 56.248L278.823 57.4L278.967 79H271.911V42.28H272.199L298.407 66.376L296.871 65.704L296.727 43.672H303.735V80.44H303.543ZM308.419 79L324.355 42.28H324.739L340.675 79H332.611L322.435 53.176L327.475 49.72L315.283 79H308.419ZM319.315 66.232H329.923L332.371 72.088H317.155L319.315 66.232ZM345.395 43.672H352.355V72.28H368.963V79H345.395V43.672ZM129.21 102.216C127.866 101.48 126.49 100.872 125.082 100.392C123.706 99.912 122.41 99.672 121.194 99.672C119.69 99.672 118.506 99.976 117.642 100.584C116.778 101.192 116.346 102.104 116.346 103.32C116.346 104.152 116.666 104.904 117.306 105.576C117.978 106.216 118.826 106.792 119.85 107.304C120.906 107.816 121.994 108.28 123.114 108.696C124.138 109.08 125.146 109.544 126.138 110.088C127.162 110.6 128.074 111.256 128.874 112.056C129.674 112.824 130.314 113.8 130.794 114.984C131.274 116.136 131.514 117.56 131.514 119.256C131.514 121.048 131.05 122.712 130.122 124.248C129.194 125.784 127.834 127.032 126.042 127.992C124.25 128.92 122.042 129.384 119.418 129.384C118.074 129.384 116.698 129.256 115.29 129C113.914 128.712 112.554 128.296 111.21 127.752C109.866 127.176 108.57 126.456 107.322 125.592L110.394 120.168C111.226 120.776 112.122 121.32 113.082 121.8C114.074 122.248 115.066 122.6 116.058 122.856C117.05 123.112 117.962 123.24 118.794 123.24C119.626 123.24 120.458 123.128 121.29 122.904C122.154 122.648 122.858 122.232 123.402 121.656C123.978 121.08 124.266 120.28 124.266 119.256C124.266 118.552 124.026 117.912 123.546 117.336C123.098 116.76 122.474 116.232 121.674 115.752C120.906 115.272 120.058 114.856 119.13 114.504C118.042 114.088 116.922 113.608 115.77 113.064C114.618 112.52 113.53 111.864 112.506 111.096C111.514 110.296 110.698 109.32 110.058 108.168C109.45 106.984 109.146 105.544 109.146 103.848C109.146 101.8 109.594 100.024 110.49 98.52C111.418 97.016 112.714 95.832 114.378 94.968C116.042 94.072 117.962 93.576 120.138 93.48C122.986 93.48 125.29 93.816 127.05 94.488C128.842 95.16 130.442 95.96 131.85 96.888L129.21 102.216ZM135.501 93.672H159.309V100.392H150.717V129H143.757V100.392H135.501V93.672ZM171.836 115.944C171.836 117.064 172.172 118.136 172.844 119.16C173.516 120.184 174.396 121.016 175.484 121.656C176.604 122.296 177.82 122.616 179.132 122.616C180.572 122.616 181.852 122.296 182.972 121.656C184.092 121.016 184.972 120.184 185.612 119.16C186.284 118.136 186.62 117.064 186.62 115.944V93.672H193.484V116.088C193.484 118.68 192.844 120.984 191.564 123C190.284 124.984 188.556 126.552 186.38 127.704C184.204 128.824 181.788 129.384 179.132 129.384C176.508 129.384 174.108 128.824 171.932 127.704C169.788 126.552 168.076 124.984 166.796 123C165.516 120.984 164.876 118.68 164.876 116.088V93.672H171.836V115.944ZM201.447 129V93.672H212.007C215.559 93.672 218.583 94.2 221.079 95.256C223.575 96.312 225.575 97.72 227.079 99.48C228.615 101.24 229.735 103.208 230.439 105.384C231.143 107.56 231.495 109.752 231.495 111.96C231.495 114.584 231.015 116.952 230.055 119.064C229.127 121.144 227.847 122.936 226.215 124.44C224.583 125.912 222.695 127.048 220.551 127.848C218.407 128.616 216.135 129 213.735 129H201.447ZM208.407 122.28H212.535C214.295 122.28 215.895 122.056 217.335 121.608C218.775 121.128 220.007 120.44 221.031 119.544C222.087 118.648 222.887 117.528 223.431 116.184C224.007 114.808 224.295 113.24 224.295 111.48C224.295 109.176 223.911 107.304 223.143 105.864C222.407 104.392 221.479 103.256 220.359 102.456C219.271 101.656 218.151 101.112 216.999 100.824C215.847 100.504 214.871 100.344 214.071 100.344H208.407V122.28ZM238.048 93.672H262.144V100.392H245.008V107.928H260.176V114.648H245.008V122.28H262.816V129H238.048V93.672ZM301.219 130.44L274.435 106.248L276.499 107.4L276.643 129H269.587V92.28H269.875L296.083 116.376L294.547 115.704L294.403 93.672H301.411V130.44H301.219ZM307.679 93.672H331.487V100.392H322.895V129H315.935V100.392H307.679V93.672ZM131.448 176.072C131.064 176.392 130.344 176.824 129.288 177.368C128.264 177.912 127 178.392 125.496 178.808C123.992 179.224 122.328 179.416 120.504 179.384C117.72 179.32 115.224 178.824 113.016 177.896C110.84 176.936 108.984 175.64 107.448 174.008C105.944 172.376 104.792 170.504 103.992 168.392C103.192 166.28 102.792 164.024 102.792 161.624C102.792 158.936 103.192 156.472 103.992 154.232C104.824 151.992 105.992 150.056 107.496 148.424C109.032 146.792 110.856 145.528 112.968 144.632C115.08 143.736 117.416 143.288 119.976 143.288C122.344 143.288 124.44 143.608 126.264 144.248C128.088 144.888 129.576 145.576 130.728 146.312L127.992 152.888C127.192 152.28 126.12 151.656 124.776 151.016C123.464 150.344 121.944 150.008 120.216 150.008C118.872 150.008 117.576 150.296 116.328 150.872C115.112 151.416 114.024 152.2 113.064 153.224C112.136 154.248 111.4 155.448 110.856 156.824C110.312 158.168 110.04 159.64 110.04 161.24C110.04 162.936 110.28 164.488 110.76 165.896C111.272 167.304 111.992 168.52 112.92 169.544C113.848 170.536 114.952 171.304 116.232 171.848C117.544 172.392 119.016 172.664 120.648 172.664C122.536 172.664 124.152 172.36 125.496 171.752C126.84 171.144 127.864 170.504 128.568 169.832L131.448 176.072ZM134.006 179L149.942 142.28H150.326L166.262 179H158.198L148.022 153.176L153.062 149.72L140.87 179H134.006ZM144.902 166.232H155.51L157.958 172.088H142.742L144.902 166.232ZM202.614 180.44L175.83 156.248L177.894 157.4L178.038 179H170.982V142.28H171.27L197.478 166.376L195.942 165.704L195.798 143.672H202.806V180.44H202.614ZM209.074 143.672H232.882V150.392H224.29V179H217.33V150.392H209.074V143.672ZM239.169 143.672H263.265V150.392H246.129V157.928H261.297V164.648H246.129V172.28H263.937V179H239.169V143.672ZM270.708 143.672H294.804V150.392H277.668V157.928H292.836V164.648H277.668V172.28H295.476V179H270.708V143.672ZM333.879 180.44L307.095 156.248L309.159 157.4L309.303 179H302.247V142.28H302.535L328.743 166.376L327.207 165.704L327.063 143.672H334.071V180.44H333.879Z" fill="white"/>
</mask>
<g mask="url(#mask0_13_55)">
<g filter="url(#filter0_f_13_55)">
<path d="M407.5 179L421.757 214.24L467.892 214.24L430.568 236.02L444.824 271.26L407.5 249.48L370.176 271.26L384.432 236.02L347.108 214.24L393.243 214.24L407.5 179Z" fill="#89B391"/>
</g>
<g filter="url(#filter1_f_13_55)">
<path d="M-29.0052 112L99.4948 272.5L-126 256L-29.0052 112Z" fill="#689368"/>
</g>
<g filter="url(#filter2_f_13_55)">
<ellipse cx="-13" cy="-19.5" rx="92" ry="80.5" fill="#B7C5B7"/>
</g>
</g>
<defs>
<filter id="filter0_f_13_55" x="337.108" y="169" width="140.784" height="112.26" filterUnits="userSpaceOnUse" color-interpolation-filters="sRGB">
<feFlood flood-opacity="0" result="BackgroundImageFix"/>
<feBlend mode="normal" in="SourceGraphic" in2="BackgroundImageFix" result="shape"/>
<feGaussianBlur stdDeviation="5" result="effect1_foregroundBlur_13_55"/>
</filter>
<filter id="filter1_f_13_55" x="-136" y="102" width="245.495" height="180.5" filterUnits="userSpaceOnUse" color-interpolation-filters="sRGB">
<feFlood flood-opacity="0" result="BackgroundImageFix"/>
<feBlend mode="normal" in="SourceGraphic" in2="BackgroundImageFix" result="shape"/>
<feGaussianBlur stdDeviation="5" result="effect1_foregroundBlur_13_55"/>
</filter>
<filter id="filter2_f_13_55" x="-115" y="-110" width="204" height="181" filterUnits="userSpaceOnUse" color-interpolation-filters="sRGB">
<feFlood flood-opacity="0" result="BackgroundImageFix"/>
<feBlend mode="normal" in="SourceGraphic" in2="BackgroundImageFix" result="shape"/>
<feGaussianBlur stdDeviation="5" result="effect1_foregroundBlur_13_55"/>
</filter>
</defs>
</svg>
