<svg width="438" height="233" viewBox="0 0 438 233" fill="none" xmlns="http://www.w3.org/2000/svg">
<mask id="mask0_13_56" style="mask-type:alpha" maskUnits="userSpaceOnUse" x="32" y="36" width="375" height="148">
<path d="M68.3213 78.34C67.8413 78.74 66.9413 79.28 65.6213 79.96C64.3413 80.64 62.7613 81.24 60.8813 81.76C59.0013 82.28 56.9213 82.52 54.6413 82.48C51.1613 82.4 48.0413 81.78 45.2813 80.62C42.5613 79.42 40.2413 77.8 38.3213 75.76C36.4413 73.72 35.0013 71.38 34.0013 68.74C33.0013 66.1 32.5013 63.28 32.5013 60.28C32.5013 56.92 33.0013 53.84 34.0013 51.04C35.0413 48.24 36.5013 45.82 38.3813 43.78C40.3013 41.74 42.5813 40.16 45.2213 39.04C47.8613 37.92 50.7813 37.36 53.9813 37.36C56.9413 37.36 59.5613 37.76 61.8413 38.56C64.1213 39.36 65.9813 40.22 67.4213 41.14L64.0013 49.36C63.0013 48.6 61.6613 47.82 59.9813 47.02C58.3413 46.18 56.4413 45.76 54.2813 45.76C52.6013 45.76 50.9813 46.12 49.4213 46.84C47.9013 47.52 46.5413 48.5 45.3413 49.78C44.1813 51.06 43.2613 52.56 42.5813 54.28C41.9013 55.96 41.5613 57.8 41.5613 59.8C41.5613 61.92 41.8613 63.86 42.4613 65.62C43.1013 67.38 44.0013 68.9 45.1613 70.18C46.3213 71.42 47.7013 72.38 49.3013 73.06C50.9413 73.74 52.7813 74.08 54.8213 74.08C57.1813 74.08 59.2013 73.7 60.8813 72.94C62.5613 72.18 63.8413 71.38 64.7213 70.54L68.3213 78.34ZM73.9072 59.98C73.9072 56.94 74.4872 54.06 75.6472 51.34C76.8072 48.62 78.4072 46.22 80.4472 44.14C82.5272 42.02 84.9272 40.36 87.6472 39.16C90.3672 37.96 93.2872 37.36 96.4072 37.36C99.4872 37.36 102.387 37.96 105.107 39.16C107.827 40.36 110.227 42.02 112.307 44.14C114.427 46.22 116.067 48.62 117.227 51.34C118.427 54.06 119.027 56.94 119.027 59.98C119.027 63.1 118.427 66.02 117.227 68.74C116.067 71.46 114.427 73.86 112.307 75.94C110.227 77.98 107.827 79.58 105.107 80.74C102.387 81.9 99.4872 82.48 96.4072 82.48C93.2872 82.48 90.3672 81.9 87.6472 80.74C84.9272 79.58 82.5272 77.98 80.4472 75.94C78.4072 73.86 76.8072 71.46 75.6472 68.74C74.4872 66.02 73.9072 63.1 73.9072 59.98ZM82.9072 59.98C82.9072 61.94 83.2472 63.78 83.9272 65.5C84.6472 67.18 85.6272 68.68 86.8672 70C88.1472 71.28 89.6072 72.28 91.2472 73C92.9272 73.72 94.7472 74.08 96.7072 74.08C98.5872 74.08 100.327 73.72 101.927 73C103.567 72.28 104.987 71.28 106.187 70C107.387 68.68 108.327 67.18 109.007 65.5C109.687 63.78 110.027 61.94 110.027 59.98C110.027 57.98 109.667 56.12 108.947 54.4C108.267 52.68 107.307 51.18 106.067 49.9C104.867 48.58 103.447 47.56 101.807 46.84C100.167 46.12 98.3872 45.76 96.4672 45.76C94.5472 45.76 92.7672 46.12 91.1272 46.84C89.4872 47.56 88.0472 48.58 86.8072 49.9C85.5672 51.18 84.6072 52.68 83.9272 54.4C83.2472 56.12 82.9072 57.98 82.9072 59.98ZM127.271 82V36.04H127.331L151.871 70.84L148.151 70L172.631 36.04H172.751V82H164.051V55.66L164.591 60.16L149.651 81.4H149.531L134.171 60.16L135.671 56.02V82H127.271ZM183.735 82V36.04H183.795L208.335 70.84L204.615 70L229.095 36.04H229.215V82H220.515V55.66L221.055 60.16L206.115 81.4H205.995L190.635 60.16L192.135 56.02V82H183.735ZM248 65.68C248 67.08 248.42 68.42 249.26 69.7C250.1 70.98 251.2 72.02 252.56 72.82C253.96 73.62 255.48 74.02 257.12 74.02C258.92 74.02 260.52 73.62 261.92 72.82C263.32 72.02 264.42 70.98 265.22 69.7C266.06 68.42 266.48 67.08 266.48 65.68V37.84H275.06V65.86C275.06 69.1 274.26 71.98 272.66 74.5C271.06 76.98 268.9 78.94 266.18 80.38C263.46 81.78 260.44 82.48 257.12 82.48C253.84 82.48 250.84 81.78 248.12 80.38C245.44 78.94 243.3 76.98 241.7 74.5C240.1 71.98 239.3 69.1 239.3 65.86V37.84H248V65.68ZM324.662 83.8L291.182 53.56L293.762 55L293.942 82H285.122V36.1H285.482L318.242 66.22L316.322 65.38L316.142 37.84H324.902V83.8H324.662ZM330.864 82L350.784 36.1H351.264L371.184 82H361.104L348.384 49.72L354.684 45.4L339.444 82H330.864ZM344.484 66.04H357.744L360.804 73.36H341.784L344.484 66.04ZM377.191 37.84H385.891V73.6H406.651V82H377.191V37.84ZM106.262 98.52C104.582 97.6 102.862 96.84 101.102 96.24C99.3816 95.64 97.7616 95.34 96.2416 95.34C94.3616 95.34 92.8816 95.72 91.8016 96.48C90.7216 97.24 90.1816 98.38 90.1816 99.9C90.1816 100.94 90.5816 101.88 91.3816 102.72C92.2216 103.52 93.2816 104.24 94.5616 104.88C95.8816 105.52 97.2416 106.1 98.6416 106.62C99.9216 107.1 101.182 107.68 102.422 108.36C103.702 109 104.842 109.82 105.842 110.82C106.842 111.78 107.642 113 108.242 114.48C108.842 115.92 109.142 117.7 109.142 119.82C109.142 122.06 108.562 124.14 107.402 126.06C106.242 127.98 104.542 129.54 102.302 130.74C100.062 131.9 97.3016 132.48 94.0216 132.48C92.3416 132.48 90.6216 132.32 88.8616 132C87.1416 131.64 85.4416 131.12 83.7616 130.44C82.0816 129.72 80.4616 128.82 78.9016 127.74L82.7416 120.96C83.7816 121.72 84.9016 122.4 86.1016 123C87.3416 123.56 88.5816 124 89.8216 124.32C91.0616 124.64 92.2016 124.8 93.2416 124.8C94.2816 124.8 95.3216 124.66 96.3616 124.38C97.4416 124.06 98.3216 123.54 99.0016 122.82C99.7216 122.1 100.082 121.1 100.082 119.82C100.082 118.94 99.7816 118.14 99.1816 117.42C98.6216 116.7 97.8416 116.04 96.8416 115.44C95.8816 114.84 94.8216 114.32 93.6616 113.88C92.3016 113.36 90.9016 112.76 89.4616 112.08C88.0216 111.4 86.6616 110.58 85.3816 109.62C84.1416 108.62 83.1216 107.4 82.3216 105.96C81.5616 104.48 81.1816 102.68 81.1816 100.56C81.1816 98 81.7416 95.78 82.8616 93.9C84.0216 92.02 85.6416 90.54 87.7216 89.46C89.8016 88.34 92.2016 87.72 94.9216 87.6C98.4816 87.6 101.362 88.02 103.562 88.86C105.802 89.7 107.802 90.7 109.562 91.86L106.262 98.52ZM114.232 87.84H143.992V96.24H133.252V132H124.552V96.24H114.232V87.84ZM159.758 115.68C159.758 117.08 160.178 118.42 161.018 119.7C161.858 120.98 162.958 122.02 164.318 122.82C165.718 123.62 167.238 124.02 168.878 124.02C170.678 124.02 172.278 123.62 173.678 122.82C175.078 122.02 176.178 120.98 176.978 119.7C177.818 118.42 178.238 117.08 178.238 115.68V87.84H186.818V115.86C186.818 119.1 186.018 121.98 184.418 124.5C182.818 126.98 180.658 128.94 177.938 130.38C175.218 131.78 172.198 132.48 168.878 132.48C165.598 132.48 162.598 131.78 159.878 130.38C157.198 128.94 155.058 126.98 153.458 124.5C151.858 121.98 151.058 119.1 151.058 115.86V87.84H159.758V115.68ZM196.88 132V87.84H210.08C214.52 87.84 218.3 88.5 221.42 89.82C224.54 91.14 227.04 92.9 228.92 95.1C230.84 97.3 232.24 99.76 233.12 102.48C234 105.2 234.44 107.94 234.44 110.7C234.44 113.98 233.84 116.94 232.64 119.58C231.48 122.18 229.88 124.42 227.84 126.3C225.8 128.14 223.44 129.56 220.76 130.56C218.08 131.52 215.24 132 212.24 132H196.88ZM205.58 123.6H210.74C212.94 123.6 214.94 123.32 216.74 122.76C218.54 122.16 220.08 121.3 221.36 120.18C222.68 119.06 223.68 117.66 224.36 115.98C225.08 114.26 225.44 112.3 225.44 110.1C225.44 107.22 224.96 104.88 224 103.08C223.08 101.24 221.92 99.82 220.52 98.82C219.16 97.82 217.76 97.14 216.32 96.78C214.88 96.38 213.66 96.18 212.66 96.18H205.58V123.6ZM242.739 87.84H272.859V96.24H251.439V105.66H270.399V114.06H251.439V123.6H273.699V132H242.739V87.84ZM321.81 133.8L288.33 103.56L290.91 105L291.09 132H282.27V86.1H282.63L315.39 116.22L313.47 115.38L313.29 87.84H322.05V133.8H321.81ZM329.992 87.84H359.752V96.24H349.012V132H340.312V96.24H329.992V87.84ZM109.112 178.34C108.632 178.74 107.732 179.28 106.412 179.96C105.132 180.64 103.552 181.24 101.672 181.76C99.7919 182.28 97.7119 182.52 95.4319 182.48C91.9519 182.4 88.8319 181.78 86.0719 180.62C83.3519 179.42 81.0319 177.8 79.1119 175.76C77.2319 173.72 75.7919 171.38 74.7919 168.74C73.7919 166.1 73.2919 163.28 73.2919 160.28C73.2919 156.92 73.7919 153.84 74.7919 151.04C75.8319 148.24 77.2919 145.82 79.1719 143.78C81.0919 141.74 83.3719 140.16 86.0119 139.04C88.6519 137.92 91.5719 137.36 94.7719 137.36C97.7319 137.36 100.352 137.76 102.632 138.56C104.912 139.36 106.772 140.22 108.212 141.14L104.792 149.36C103.792 148.6 102.452 147.82 100.772 147.02C99.1319 146.18 97.2319 145.76 95.0719 145.76C93.3919 145.76 91.7719 146.12 90.2119 146.84C88.6919 147.52 87.3319 148.5 86.1319 149.78C84.9719 151.06 84.0519 152.56 83.3719 154.28C82.6919 155.96 82.3519 157.8 82.3519 159.8C82.3519 161.92 82.6519 163.86 83.2519 165.62C83.8919 167.38 84.7919 168.9 85.9519 170.18C87.1119 171.42 88.4919 172.38 90.0919 173.06C91.7319 173.74 93.5719 174.08 95.6119 174.08C97.9719 174.08 99.9919 173.7 101.672 172.94C103.352 172.18 104.632 171.38 105.512 170.54L109.112 178.34ZM112.418 182L132.338 136.1H132.818L152.738 182H142.658L129.938 149.72L136.238 145.4L120.998 182H112.418ZM126.038 166.04H139.298L142.358 173.36H123.338L126.038 166.04ZM198.285 183.8L164.805 153.56L167.385 155L167.565 182H158.745V136.1H159.105L191.865 166.22L189.945 165.38L189.765 137.84H198.525V183.8H198.285ZM206.468 137.84H236.228V146.24H225.488V182H216.788V146.24H206.468V137.84ZM244.194 137.84H274.314V146.24H252.894V155.66H271.854V164.06H252.894V173.6H275.154V182H244.194V137.84ZM283.725 137.84H313.845V146.24H292.425V155.66H311.385V164.06H292.425V173.6H314.685V182H283.725V137.84ZM362.796 183.8L329.316 153.56L331.896 155L332.076 182H323.256V136.1H323.616L356.376 166.22L354.456 165.38L354.276 137.84H363.036V183.8H362.796Z" fill="white"/>
</mask>
<g mask="url(#mask0_13_56)">
<g filter="url(#filter0_f_13_56)">
<path d="M13.3661 -48L198 220L-126 192.449L13.3661 -48Z" fill="#7190FF"/>
</g>
<g filter="url(#filter1_f_13_56)">
<ellipse cx="198.5" cy="59" rx="120.5" ry="98" fill="#B7C5B7"/>
</g>
<g filter="url(#filter2_f_13_56)">
<path d="M232 82L263.601 142.218L349 164.5L263.601 186.782L232 247L200.399 186.782L115 164.5L200.399 142.218L232 82Z" fill="#FF988E"/>
</g>
<g filter="url(#filter3_f_13_56)">
<rect x="267" y="12" width="153" height="221" fill="#FFE072"/>
</g>
</g>
<defs>
<filter id="filter0_f_13_56" x="-136" y="-58" width="344" height="288" filterUnits="userSpaceOnUse" color-interpolation-filters="sRGB">
<feFlood flood-opacity="0" result="BackgroundImageFix"/>
<feBlend mode="normal" in="SourceGraphic" in2="BackgroundImageFix" result="shape"/>
<feGaussianBlur stdDeviation="5" result="effect1_foregroundBlur_13_56"/>
</filter>
<filter id="filter1_f_13_56" x="68" y="-49" width="261" height="216" filterUnits="userSpaceOnUse" color-interpolation-filters="sRGB">
<feFlood flood-opacity="0" result="BackgroundImageFix"/>
<feBlend mode="normal" in="SourceGraphic" in2="BackgroundImageFix" result="shape"/>
<feGaussianBlur stdDeviation="5" result="effect1_foregroundBlur_13_56"/>
</filter>
<filter id="filter2_f_13_56" x="105" y="72" width="254" height="185" filterUnits="userSpaceOnUse" color-interpolation-filters="sRGB">
<feFlood flood-opacity="0" result="BackgroundImageFix"/>
<feBlend mode="normal" in="SourceGraphic" in2="BackgroundImageFix" result="shape"/>
<feGaussianBlur stdDeviation="5" result="effect1_foregroundBlur_13_56"/>
</filter>
<filter id="filter3_f_13_56" x="257" y="2" width="173" height="241" filterUnits="userSpaceOnUse" color-interpolation-filters="sRGB">
<feFlood flood-opacity="0" result="BackgroundImageFix"/>
<feBlend mode="normal" in="SourceGraphic" in2="BackgroundImageFix" result="shape"/>
<feGaussianBlur stdDeviation="5" result="effect1_foregroundBlur_13_56"/>
</filter>
</defs>
</svg>
